<svg>
  <defs>
    <symbol id="error_outlined" viewBox="0 0 32 32" xmlns="http://www.w3.org/2000/svg">
      <g id="Icon=error_outlined">
        <path id="Icon color" fill-rule="evenodd" clip-rule="evenodd" d="M2.66675 16.0001C2.66675 8.63628 8.63628 2.66675 16.0001 2.66675C19.5363 2.66675 22.9277 4.07151 25.4282 6.57199C27.9287 9.07248 29.3334 12.4639 29.3334 16.0001C29.3334 23.3639 23.3639 29.3334 16.0001 29.3334C8.63628 29.3334 2.66675 23.3639 2.66675 16.0001ZM5.33341 16.0001C5.33341 21.8911 10.109 26.6667 16.0001 26.6667C18.8291 26.6667 21.5422 25.5429 23.5426 23.5426C25.5429 21.5422 26.6667 18.8291 26.6667 16.0001C26.6667 10.109 21.8911 5.33341 16.0001 5.33341C10.109 5.33341 5.33341 10.109 5.33341 16.0001ZM15.3334 18.6667C14.9652 18.6667 14.6667 18.9652 14.6667 19.3334V20.6667C14.6667 21.0349 14.9652 21.3334 15.3334 21.3334H16.6667C17.0349 21.3334 17.3334 21.0349 17.3334 20.6667V19.3334C17.3334 18.9652 17.0349 18.6667 16.6667 18.6667H15.3334ZM15.0934 10.6667H16.9067C17.0983 10.6654 17.2813 10.7465 17.4089 10.8894C17.5365 11.0323 17.5964 11.2232 17.5734 11.4134L17.0401 15.7067C17.0197 15.8751 16.8763 16.0013 16.7067 16.0001H15.2934C15.1239 16.0013 14.9804 15.8751 14.9601 15.7067L14.4267 11.4134C14.4038 11.2232 14.4637 11.0323 14.5913 10.8894C14.7189 10.7465 14.9018 10.6654 15.0934 10.6667Z" />
      </g>
    </symbol>
    <symbol id="notifications_on" viewBox="0 0 32 32" xmlns="http://www.w3.org/2000/svg">
      <g id="Icon=notifications_on">
        <path id="Icon color" fill-rule="evenodd" clip-rule="evenodd" d="M24 17.0134C24.001 18.0739 24.423 19.0907 25.1734 19.8401L26.28 20.9467C26.5264 21.1951 26.6652 21.5303 26.6667 21.8801V22.6667C26.6667 23.4031 26.0697 24.0001 25.3334 24.0001H6.66669C5.93031 24.0001 5.33336 23.4031 5.33336 22.6667V21.8801C5.33483 21.5303 5.4737 21.1951 5.72003 20.9467L6.82669 19.8401C7.57705 19.0907 7.99909 18.0739 8.00003 17.0134V13.3334C8.00003 11.6025 8.56145 9.91818 9.60003 8.53341L10.8 6.93341C11.5554 5.92619 12.741 5.33341 14 5.33341H14.6667V3.33341C14.6667 2.96522 14.9652 2.66675 15.3334 2.66675H16.6667C17.0349 2.66675 17.3334 2.96522 17.3334 3.33341V5.33341H18C19.2591 5.33341 20.4446 5.92619 21.2 6.93341L22.4 8.53341C23.4386 9.91818 24 11.6025 24 13.3334V17.0134ZM16 29.3334C17.4728 29.3334 18.6667 28.1395 18.6667 26.6667H13.3334C13.3334 28.1395 14.5273 29.3334 16 29.3334ZM7.45336 6.94675C7.61242 6.73975 7.57688 6.44358 7.37336 6.28008L6.04003 5.24008C5.92855 5.14737 5.78413 5.10405 5.64003 5.12008C5.51379 5.14824 5.40367 5.22485 5.33336 5.33341C3.74408 7.44803 2.81622 9.98572 2.66669 12.6267C2.65331 12.8106 2.72159 12.9911 2.85336 13.1201C2.97546 13.2566 3.15021 13.3343 3.33336 13.3334H4.66669C5.02201 13.3271 5.31251 13.0482 5.33336 12.6934C5.47213 10.6137 6.20826 8.6183 7.45336 6.94675ZM26.3067 5.12008C26.4518 5.136 26.583 5.21376 26.6667 5.33341C28.2504 7.45107 29.1776 9.98701 29.3334 12.6267C29.3308 12.8104 29.2595 12.9865 29.1334 13.1201C29.0093 13.2539 28.8358 13.331 28.6534 13.3334H27.32C26.9672 13.3266 26.6807 13.046 26.6667 12.6934C26.5085 10.6068 25.749 8.61073 24.48 6.94675C24.321 6.73975 24.3565 6.44358 24.56 6.28008L25.8934 5.24008C26.011 5.14916 26.1587 5.10627 26.3067 5.12008Z" />
      </g>
    </symbol>
    <symbol id="notifications_on_outlined" viewBox="0 0 32 32" xmlns="http://www.w3.org/2000/svg">
      <g id="Icon=notifications_on_outlined">
        <path id="Icon color" fill-rule="evenodd" clip-rule="evenodd" d="M25.1734 19.8401C24.423 19.0907 24.001 18.0739 24 17.0134V13.3334C24 11.6025 23.4386 9.91818 22.4 8.53341L21.2 6.93341C20.4446 5.92619 19.2591 5.33341 18 5.33341H17.3334V3.33341C17.3334 2.96522 17.0349 2.66675 16.6667 2.66675H15.3334C14.9652 2.66675 14.6667 2.96522 14.6667 3.33341V5.33341H14C12.741 5.33341 11.5554 5.92619 10.8 6.93341L9.60003 8.53341C8.56145 9.91818 8.00003 11.6025 8.00003 13.3334V17.0134C7.99909 18.0739 7.57705 19.0907 6.82669 19.8401L5.72003 20.9467C5.4737 21.1951 5.33483 21.5303 5.33336 21.8801V22.6667C5.33336 23.4031 5.93031 24.0001 6.66669 24.0001H25.3334C26.0697 24.0001 26.6667 23.4031 26.6667 22.6667V21.8801C26.6652 21.5303 26.5264 21.1951 26.28 20.9467L25.1734 19.8401ZM21.3334 21.3334H10.6667V13.3334C10.6667 12.1794 11.041 11.0566 11.7334 10.1334L12.9334 8.53341C13.1852 8.19767 13.5804 8.00008 14 8.00008H18C18.4197 8.00008 18.8149 8.19767 19.0667 8.53341L20.2667 10.1334C20.9591 11.0566 21.3334 12.1794 21.3334 13.3334V21.3334ZM18.6667 26.6667C18.6667 28.1395 17.4728 29.3334 16 29.3334C14.5273 29.3334 13.3334 28.1395 13.3334 26.6667H18.6667ZM7.45336 6.94675C7.61242 6.73975 7.57688 6.44358 7.37336 6.28008L6.04003 5.24008C5.92855 5.14737 5.78413 5.10405 5.64003 5.12008C5.51379 5.14824 5.40367 5.22485 5.33336 5.33341C3.74408 7.44803 2.81622 9.98572 2.66669 12.6267C2.65331 12.8106 2.72159 12.9911 2.85336 13.1201C2.97546 13.2566 3.15021 13.3343 3.33336 13.3334H4.66669C5.02201 13.3271 5.31251 13.0482 5.33336 12.6934C5.47213 10.6137 6.20826 8.6183 7.45336 6.94675ZM26.3067 5.12008C26.4518 5.136 26.583 5.21376 26.6667 5.33341C28.2504 7.45107 29.1776 9.98701 29.3334 12.6267C29.3308 12.8104 29.2595 12.9865 29.1334 13.1201C29.0093 13.2539 28.8358 13.331 28.6534 13.3334H27.32C26.9672 13.3266 26.6807 13.046 26.6667 12.6934C26.5085 10.6068 25.749 8.61073 24.48 6.94675C24.321 6.73975 24.3565 6.44358 24.56 6.28008L25.8934 5.24008C26.011 5.14916 26.1587 5.10627 26.3067 5.12008Z" />
      </g>
    </symbol>
    <symbol id="notifications_outlined" viewBox="0 0 32 32" xmlns="http://www.w3.org/2000/svg">
      <g id="Icon=notifications_outlined">
        <path id="Icon color" fill-rule="evenodd" clip-rule="evenodd" d="M26.2799 20.9467L25.1733 19.8401C24.4229 19.0907 24.0009 18.0739 23.9999 17.0134V13.3334C23.9999 11.6025 23.4385 9.91818 22.3999 8.53341L21.1999 6.93341C20.4445 5.92619 19.2589 5.33341 17.9999 5.33341H17.3333V3.33341C17.3333 2.96522 17.0348 2.66675 16.6666 2.66675H15.3333C14.9651 2.66675 14.6666 2.96522 14.6666 3.33341V5.33341H13.9999C12.7409 5.33341 11.5553 5.92619 10.7999 6.93341L9.59992 8.53341C8.56134 9.91818 7.99992 11.6025 7.99992 13.3334V17.0134C7.99899 18.0739 7.57695 19.0907 6.82659 19.8401L5.71992 20.9467C5.47359 21.1951 5.33472 21.5303 5.33325 21.8801V22.6667C5.33325 23.4031 5.93021 24.0001 6.66659 24.0001H25.3333C26.0696 24.0001 26.6666 23.4031 26.6666 22.6667V21.8801C26.6651 21.5303 26.5262 21.1951 26.2799 20.9467ZM21.3333 21.3334H10.6666V13.3334C10.6666 12.1794 11.0409 11.0566 11.7333 10.1334L12.9333 8.53341C13.1851 8.19767 13.5802 8.00008 13.9999 8.00008H17.9999C18.4196 8.00008 18.8148 8.19767 19.0666 8.53341L20.2666 10.1334C20.959 11.0566 21.3333 12.1794 21.3333 13.3334V21.3334ZM15.9999 29.3334C17.4727 29.3334 18.6666 28.1395 18.6666 26.6667H13.3333C13.3333 28.1395 14.5272 29.3334 15.9999 29.3334Z" />
      </g>
    </symbol>
    <symbol id="message_failed" viewBox="0 0 32 32" xmlns="http://www.w3.org/2000/svg">
      <g id="Icon=message_failed">
        <path id="Icon color" fill-rule="evenodd" clip-rule="evenodd" d="M24.0001 2.66675H8.00008C5.05456 2.66675 2.66675 5.05456 2.66675 8.00008V28.6667C2.66675 29.0349 2.96522 29.3334 3.33341 29.3334C3.50957 29.3324 3.67785 29.2603 3.80008 29.1334L7.80008 25.1334C8.56585 24.3878 9.59816 23.9797 10.6667 24.0001H24.0001C26.9456 24.0001 29.3334 21.6123 29.3334 18.6667V8.00008C29.3334 5.05456 26.9456 2.66675 24.0001 2.66675ZM17.3334 18.0001C17.3334 18.3683 17.0349 18.6667 16.6667 18.6667H15.3334C14.9652 18.6667 14.6667 18.3683 14.6667 18.0001V16.6667C14.6667 16.2986 14.9652 16.0001 15.3334 16.0001H16.6667C17.0349 16.0001 17.3334 16.2986 17.3334 16.6667V18.0001ZM16.7067 13.3334C16.8763 13.3346 17.0197 13.2084 17.0401 13.0401L17.5734 8.74675C17.5964 8.55654 17.5365 8.36564 17.4089 8.22272C17.2813 8.0798 17.0983 7.9987 16.9067 8.00008H15.0934C14.9018 7.9987 14.7189 8.0798 14.5913 8.22272C14.4637 8.36564 14.4038 8.55654 14.4267 8.74675L14.9601 13.0401C14.9804 13.2084 15.1239 13.3346 15.2934 13.3334H16.7067Z" />
      </g>
    </symbol>
    <symbol id="message_failed_outlined" viewBox="0 0 32 32" xmlns="http://www.w3.org/2000/svg">
      <g id="Icon=message_failed_outlined">
        <path id="Icon color" fill-rule="evenodd" clip-rule="evenodd" d="M8.00008 2.66675H24.0001C26.9456 2.66675 29.3334 5.05456 29.3334 8.00008V18.6667C29.3334 21.6123 26.9456 24.0001 24.0001 24.0001H10.6667C9.59816 23.9797 8.56585 24.3878 7.80008 25.1334L3.80008 29.1334C3.67785 29.2603 3.50957 29.3324 3.33341 29.3334C2.96522 29.3334 2.66675 29.0349 2.66675 28.6667V8.00008C2.66675 5.05456 5.05456 2.66675 8.00008 2.66675ZM24.0001 21.3334C25.4728 21.3334 26.6667 20.1395 26.6667 18.6667V8.00008C26.6667 6.52732 25.4728 5.33341 24.0001 5.33341H8.00008C6.52732 5.33341 5.33341 6.52732 5.33341 8.00008V23.8401L5.94675 23.2801C7.19942 22.0306 8.89743 21.3303 10.6667 21.3334H24.0001ZM16.6667 16.0001H15.3334C14.9652 16.0001 14.6667 16.2986 14.6667 16.6667V18.0001C14.6667 18.3683 14.9652 18.6667 15.3334 18.6667H16.6667C17.0349 18.6667 17.3334 18.3683 17.3334 18.0001V16.6667C17.3334 16.2986 17.0349 16.0001 16.6667 16.0001ZM16.7467 13.3334H15.3334H15.2934C15.1239 13.3346 14.9804 13.2084 14.9601 13.0401L14.4267 8.74675C14.4038 8.55654 14.4637 8.36564 14.5913 8.22272C14.7189 8.0798 14.9018 7.9987 15.0934 8.00008H16.9467C17.1383 7.9987 17.3213 8.0798 17.4489 8.22272C17.5765 8.36564 17.6364 8.55654 17.6134 8.74675L17.0801 13.0401C17.0597 13.2084 16.9163 13.3346 16.7467 13.3334Z" />
      </g>
    </symbol>
    <symbol id="warning" viewBox="0 0 32 32" xmlns="http://www.w3.org/2000/svg">
      <g id="Icon=warning">
        <path id="Icon color" fill-rule="evenodd" clip-rule="evenodd" d="M30.5402 26.1734L17.0837 3.16008C16.9013 2.85503 16.5723 2.66783 16.2168 2.66675H15.8167C15.4613 2.66783 15.1323 2.85503 14.9499 3.16008L1.46668 26.1734C1.29349 26.489 1.29349 26.8712 1.46668 27.1867L1.6534 27.4934C1.82622 27.8098 2.15976 28.0047 2.52027 28.0001H29.4867C29.8472 28.0047 30.1807 27.8098 30.3535 27.4934L30.5402 27.1867C30.7134 26.8712 30.7134 26.489 30.5402 26.1734ZM17.3371 22.0001C17.3371 22.3683 17.0386 22.6667 16.6703 22.6667H15.3366C14.9684 22.6667 14.6698 22.3683 14.6698 22.0001V20.6667C14.6698 20.2986 14.9684 20.0001 15.3366 20.0001H16.6703C17.0386 20.0001 17.3371 20.2986 17.3371 20.6667V22.0001ZM16.7103 17.3334C16.8799 17.3346 17.0234 17.2084 17.0437 17.0401L17.5772 12.7467C17.6002 12.5565 17.5402 12.3656 17.4126 12.2227C17.2849 12.0798 17.102 11.9987 16.9103 12.0001H15.0966C14.9049 11.9987 14.722 12.0798 14.5943 12.2227C14.4667 12.3656 14.4068 12.5565 14.4298 12.7467L14.9632 17.0401C14.9836 17.2084 15.127 17.3346 15.2966 17.3334H16.7103Z" />
      </g>
    </symbol>
    <symbol id="warning_outlined" viewBox="0 0 32 32" xmlns="http://www.w3.org/2000/svg">
      <g id="Icon=warning_outlined">
        <path id="Icon color" fill-rule="evenodd" clip-rule="evenodd" d="M17.0837 3.16008L30.5402 26.1734C30.7134 26.489 30.7134 26.8712 30.5402 27.1867L30.3535 27.4934C30.1807 27.8098 29.8472 28.0047 29.4867 28.0001H2.52027C2.15976 28.0047 1.82622 27.8098 1.6534 27.4934L1.46668 27.1867C1.29349 26.8712 1.29349 26.489 1.46668 26.1734L14.9499 3.16008C15.1323 2.85503 15.4613 2.66783 15.8167 2.66675H16.2168C16.5723 2.66783 16.9013 2.85503 17.0837 3.16008ZM16.0035 6.66675L5.0542 25.3334H26.9394L16.0035 6.66675ZM16.6703 20.0001H15.3366C14.9684 20.0001 14.6698 20.2986 14.6698 20.6667V22.0001C14.6698 22.3683 14.9684 22.6667 15.3366 22.6667H16.6703C17.0386 22.6667 17.3371 22.3683 17.3371 22.0001V20.6667C17.3371 20.2986 17.0386 20.0001 16.6703 20.0001ZM14.9632 17.0401L14.4298 12.7467C14.4068 12.5565 14.4667 12.3656 14.5943 12.2227C14.722 12.0798 14.9049 11.9987 15.0966 12.0001H16.9103C17.102 11.9987 17.2849 12.0798 17.4126 12.2227C17.5402 12.3656 17.6002 12.5565 17.5772 12.7467L17.0437 17.0401C17.0234 17.2084 16.8799 17.3346 16.7103 17.3334H15.2966C15.127 17.3346 14.9836 17.2084 14.9632 17.0401Z" />
      </g>
    </symbol>
    <symbol id="drag" viewBox="0 0 32 32" xmlns="http://www.w3.org/2000/svg">
      <g id="Icon=drag">
        <path id="Icon color" fill-rule="evenodd" clip-rule="evenodd" d="M11.9999 10.6666C13.4727 10.6666 14.6666 9.47268 14.6666 7.99992C14.6666 6.52716 13.4727 5.33325 11.9999 5.33325C10.5272 5.33325 9.33325 6.52716 9.33325 7.99992C9.33325 9.47268 10.5272 10.6666 11.9999 10.6666ZM9.33325 15.9999C9.33325 14.5272 10.5272 13.3333 11.9999 13.3333C13.4727 13.3333 14.6666 14.5272 14.6666 15.9999C14.6666 17.4727 13.4727 18.6666 11.9999 18.6666C10.5272 18.6666 9.33325 17.4727 9.33325 15.9999ZM11.9999 21.3333C10.5272 21.3333 9.33325 22.5272 9.33325 23.9999C9.33325 25.4727 10.5272 26.6666 11.9999 26.6666C13.4727 26.6666 14.6666 25.4727 14.6666 23.9999C14.6666 22.5272 13.4727 21.3333 11.9999 21.3333ZM22.6666 7.99992C22.6666 9.47268 21.4727 10.6666 19.9999 10.6666C18.5272 10.6666 17.3333 9.47268 17.3333 7.99992C17.3333 6.52716 18.5272 5.33325 19.9999 5.33325C21.4727 5.33325 22.6666 6.52716 22.6666 7.99992ZM19.9999 13.3333C18.5272 13.3333 17.3333 14.5272 17.3333 15.9999C17.3333 17.4727 18.5272 18.6666 19.9999 18.6666C21.4727 18.6666 22.6666 17.4727 22.6666 15.9999C22.6666 14.5272 21.4727 13.3333 19.9999 13.3333ZM17.3333 23.9999C17.3333 22.5272 18.5272 21.3333 19.9999 21.3333C21.4727 21.3333 22.6666 22.5272 22.6666 23.9999C22.6666 25.4727 21.4727 26.6666 19.9999 26.6666C18.5272 26.6666 17.3333 25.4727 17.3333 23.9999Z" />
      </g>
    </symbol>
    <symbol id="delete" viewBox="0 0 32 32" xmlns="http://www.w3.org/2000/svg">
      <g id="Icon=delete">
        <path id="Icon color" fill-rule="evenodd" clip-rule="evenodd" d="M26.6666 7.33342V6.00008C26.6666 5.63189 26.3681 5.33341 25.9999 5.33341H19.9999V4.00008C19.9999 3.2637 19.403 2.66675 18.6666 2.66675H13.3333C12.5969 2.66675 11.9999 3.2637 11.9999 4.00008V5.33341H5.99992C5.63173 5.33341 5.33325 5.63189 5.33325 6.00008V7.33342C5.33325 7.7016 5.63173 8.00008 5.99992 8.00008H25.9999C26.3681 8.00008 26.6666 7.7016 26.6666 7.33342ZM10.4933 29.3334C9.09041 29.3369 7.92478 28.2528 7.82659 26.8534L6.66659 10.6667H25.3333L24.1999 26.8534C24.1017 28.2528 22.9361 29.3369 21.5333 29.3334H10.4933Z" />
      </g>
    </symbol>
    <symbol id="done" viewBox="0 0 32 32" xmlns="http://www.w3.org/2000/svg">
      <g id="Icon=done">
        <path id="Icon color" d="M26.4666 9.66666L12.3332 23.8C12.208 23.9262 12.0376 23.9972 11.8599 23.9972C11.6821 23.9972 11.5117 23.9262 11.3866 23.8L4.19988 16.6133C4.07368 16.4881 4.00269 16.3178 4.00269 16.14C4.00269 15.9622 4.07368 15.7918 4.19988 15.6667L5.13322 14.7333C5.2584 14.6071 5.42879 14.5361 5.60655 14.5361C5.78431 14.5361 5.95471 14.6071 6.07988 14.7333L11.8532 20.5067L24.5866 7.77333C24.8503 7.51762 25.2695 7.51762 25.5332 7.77333L26.4666 8.71999C26.5928 8.84517 26.6637 9.01557 26.6637 9.19333C26.6637 9.37108 26.5928 9.54148 26.4666 9.66666Z" />
      </g>
    </symbol>
    <symbol id="info" viewBox="0 0 32 32" xmlns="http://www.w3.org/2000/svg">
      <g id="Icon=info">
        <path id="Icon color" fill-rule="evenodd" clip-rule="evenodd" d="M2.66675 16.0001C2.66675 8.63628 8.63628 2.66675 16.0001 2.66675C19.5363 2.66675 22.9277 4.07151 25.4282 6.57199C27.9287 9.07248 29.3334 12.4639 29.3334 16.0001C29.3334 23.3639 23.3639 29.3334 16.0001 29.3334C8.63628 29.3334 2.66675 23.3639 2.66675 16.0001ZM5.33341 16.0001C5.33341 21.8911 10.109 26.6667 16.0001 26.6667C18.8291 26.6667 21.5422 25.5429 23.5426 23.5426C25.5429 21.5422 26.6667 18.8291 26.6667 16.0001C26.6667 10.109 21.8911 5.33341 16.0001 5.33341C10.109 5.33341 5.33341 10.109 5.33341 16.0001ZM17.3334 16.6667C17.3334 16.2986 17.0349 16.0001 16.6667 16.0001H15.3334C14.9652 16.0001 14.6667 16.2986 14.6667 16.6667V20.6667C14.6667 21.0349 14.9652 21.3334 15.3334 21.3334H16.6667C17.0349 21.3334 17.3334 21.0349 17.3334 20.6667V16.6667ZM16.6667 10.6667C17.0349 10.6667 17.3334 10.9652 17.3334 11.3334V12.6667C17.3334 13.0349 17.0349 13.3334 16.6667 13.3334H15.3334C14.9652 13.3334 14.6667 13.0349 14.6667 12.6667V11.3334C14.6667 10.9652 14.9652 10.6667 15.3334 10.6667H16.6667Z" />
      </g>
    </symbol>
  </defs>
</svg>