<svg>
  <defs>
    <symbol id="caret_right" viewBox="0 0 72 72" xmlns="http://www.w3.org/2000/svg">
      <g id="Icon=caret_right">
        <path id="Icon color" d="M33.1802 48.4202C32.8985 48.7041 32.5151 48.8639 32.1152 48.8639C31.7152 48.8639 31.3318 48.7041 31.0502 48.4202L30.4502 47.8202C30.1572 47.5379 29.9943 47.1469 30.0002 46.7402V25.2602C29.9943 24.8534 30.1572 24.4624 30.4502 24.1802L31.0502 23.5802C31.3318 23.2962 31.7152 23.1365 32.1152 23.1365C32.5151 23.1365 32.8985 23.2962 33.1802 23.5802L44.5502 34.9502C44.8402 35.2224 45.0047 35.6024 45.0047 36.0002C45.0047 36.3979 44.8402 36.778 44.5502 37.0502L33.1802 48.4202Z"/>
      </g>
    </symbol>
    <symbol id="caret_up" viewBox="0 0 72 72" xmlns="http://www.w3.org/2000/svg">
      <g id="Icon=caret_up">
        <path 
          id="Icon color" 
          d="M48.4202 38.8202C48.7041 39.1018 48.8639 39.4852 48.8639 39.8852C48.8639 40.2851 48.7041 40.6685 48.4202 40.9502L47.8202 41.5502C47.5379 41.8431 47.1469 42.0061 46.7402 42.0002H25.2602C24.8534 42.0061 24.4624 41.8431 24.1802 41.5502L23.5802 40.9502C23.2962 40.6685 23.1365 40.2851 23.1365 39.8852C23.1365 39.4852 23.2962 39.1018 23.5802 38.8202L34.9502 27.4502C35.2224 27.1601 35.6024 26.9956 36.0002 26.9956C36.3979 26.9956 36.778 27.1601 37.0502 27.4502L48.4202 38.8202Z"
        />
      </g>
    </symbol>
    <symbol id="caret_down" viewBox="0 0 72 72" xmlns="http://www.w3.org/2000/svg">
      <g id="Icon=caret_down">
        <path id="Icon color" d="M23.5802 33.1802C23.2962 32.8985 23.1365 32.5151 23.1365 32.1152C23.1365 31.7152 23.2962 31.3318 23.5802 31.0502L24.1802 30.4502C24.4624 30.1572 24.8534 29.9943 25.2602 30.0002H46.7402C47.1469 29.9943 47.5379 30.1572 47.8202 30.4502L48.4202 31.0502C48.7041 31.3318 48.8639 31.7152 48.8639 32.1152C48.8639 32.5151 48.7041 32.8985 48.4202 33.1802L37.0502 44.5502C36.778 44.8402 36.3979 45.0047 36.0002 45.0047C35.6024 45.0047 35.2224 44.8402 34.9502 44.5502L23.5802 33.1802Z" />
      </g>
    </symbol>
    <symbol id="caret_left" viewBox="0 0 72 72" xmlns="http://www.w3.org/2000/svg">
      <g id="Icon=caret_left">
        <path id="Icon color" d="M38.8202 23.5802C39.1018 23.2962 39.4852 23.1365 39.8852 23.1365C40.2851 23.1365 40.6685 23.2962 40.9502 23.5802L41.5502 24.1802C41.8431 24.4624 42.0061 24.8534 42.0002 25.2602V46.7402C42.0061 47.1469 41.8431 47.5379 41.5502 47.8202L40.9502 48.4202C40.6685 48.7041 40.2851 48.8639 39.8852 48.8639C39.4852 48.8639 39.1018 48.7041 38.8202 48.4202L27.4502 37.0502C27.1601 36.778 26.9956 36.3979 26.9956 36.0002C26.9956 35.6024 27.1601 35.2224 27.4502 34.9502L38.8202 23.5802Z" />
      </g>
    </symbol>          
    <symbol id="chevron_down" viewBox="0 0 72 72" xmlns="http://www.w3.org/2000/svg">
      <g id="Icon=chevron_down">
        <path id="Icon color" d="M38.1599 47.3401C37.7384 47.7622 37.1665 47.9996 36.5699 48.0001H35.4299C34.8347 47.9932 34.2651 47.7568 33.8399 47.3401L18.4499 31.9201C18.166 31.6385 18.0062 31.2551 18.0062 30.8551C18.0062 30.4552 18.166 30.0718 18.4499 29.7901L20.5799 27.6601C20.8564 27.3779 21.2349 27.2189 21.6299 27.2189C22.025 27.2189 22.4034 27.3779 22.6799 27.6601L35.9999 41.0101L49.3199 27.6601C49.6016 27.3762 49.985 27.2164 50.3849 27.2164C50.7849 27.2164 51.1683 27.3762 51.4499 27.6601L53.5499 29.7901C53.8339 30.0718 53.9936 30.4552 53.9936 30.8551C53.9936 31.2551 53.8339 31.6385 53.5499 31.9201L38.1599 47.3401Z" />
      </g>
    </symbol>
    <symbol id="chevron_left" viewBox="0 0 72 72" xmlns="http://www.w3.org/2000/svg">
      <g id="Icon=chevron_left">
        <path id="Icon color" d="M24.66 38.1599C24.2379 37.7384 24.0005 37.1665 24 36.5699V35.4299C24.0069 34.8347 24.2433 34.2651 24.66 33.8399L40.08 18.4499C40.3617 18.166 40.745 18.0062 41.145 18.0062C41.545 18.0062 41.9283 18.166 42.21 18.4499L44.34 20.5799C44.6222 20.8564 44.7812 21.2349 44.7812 21.6299C44.7812 22.025 44.6222 22.4034 44.34 22.6799L30.99 35.9999L44.34 49.3199C44.624 49.6016 44.7837 49.985 44.7837 50.3849C44.7837 50.7849 44.624 51.1683 44.34 51.4499L42.21 53.5499C41.9283 53.8339 41.545 53.9936 41.145 53.9936C40.745 53.9936 40.3617 53.8339 40.08 53.5499L24.66 38.1599Z" />
      </g>
    </symbol>
    <symbol id="chevron_right" viewBox="0 0 72 72" xmlns="http://www.w3.org/2000/svg">
      <g id="Icon=chevron_right">
        <path id="Icon color" d="M47.3401 33.8399C47.7622 34.2615 47.9996 34.8334 48.0001 35.4299V36.5699C47.9932 37.1652 47.7568 37.7348 47.3401 38.1599L31.9201 53.5499C31.6385 53.8339 31.2551 53.9936 30.8551 53.9936C30.4552 53.9936 30.0718 53.8339 29.7901 53.5499L27.6601 51.4199C27.3779 51.1434 27.2189 50.765 27.2189 50.3699C27.2189 49.9749 27.3779 49.5964 27.6601 49.3199L41.0101 35.9999L27.6601 22.6799C27.3762 22.3983 27.2164 22.0149 27.2164 21.6149C27.2164 21.215 27.3762 20.8316 27.6601 20.5499L29.7901 18.4499C30.0718 18.166 30.4552 18.0062 30.8551 18.0062C31.2551 18.0062 31.6385 18.166 31.9201 18.4499L47.3401 33.8399Z" />
      </g>
    </symbol>
    <symbol id="chevron_up" viewBox="0 0 72 72" xmlns="http://www.w3.org/2000/svg">
      <g id="Icon=chevron_up">
        <path id="Icon color" d="M33.8399 24.66C34.2615 24.2379 34.8334 24.0005 35.4299 24H36.5699C37.1652 24.0069 37.7348 24.2433 38.1599 24.66L53.5499 40.08C53.8339 40.3617 53.9936 40.745 53.9936 41.145C53.9936 41.545 53.8339 41.9283 53.5499 42.21L51.4199 44.34C51.1434 44.6222 50.765 44.7812 50.3699 44.7812C49.9749 44.7812 49.5964 44.6222 49.3199 44.34L35.9999 30.99L22.6799 44.34C22.3983 44.624 22.0149 44.7837 21.6149 44.7837C21.215 44.7837 20.8316 44.624 20.5499 44.34L18.4499 42.21C18.166 41.9283 18.0062 41.545 18.0062 41.145C18.0062 40.745 18.166 40.3617 18.4499 40.08L33.8399 24.66Z" />
      </g>
    </symbol>
    <symbol id="error_outlined" viewBox="0 0 72 72" xmlns="http://www.w3.org/2000/svg">
      <g id="Icon=error_outlined">
        <path id="Icon color" fill-rule="evenodd" clip-rule="evenodd" d="M6 36C6 19.4315 19.4315 6 36 6C43.9565 6 51.5871 9.16071 57.2132 14.7868C62.8393 20.4129 66 28.0435 66 36C66 52.5685 52.5685 66 36 66C19.4315 66 6 52.5685 6 36ZM12 36C12 49.2548 22.7452 60 36 60C42.3652 60 48.4697 57.4714 52.9706 52.9706C57.4714 48.4697 60 42.3652 60 36C60 22.7452 49.2548 12 36 12C22.7452 12 12 22.7452 12 36ZM34.5 42C33.6716 42 33 42.6716 33 43.5V46.5C33 47.3284 33.6716 48 34.5 48H37.5C38.3284 48 39 47.3284 39 46.5V43.5C39 42.6716 38.3284 42 37.5 42H34.5ZM33.96 24H38.04C38.4711 23.9969 38.8826 24.1794 39.1698 24.5009C39.4569 24.8225 39.5917 25.252 39.54 25.68L38.34 35.34C38.2942 35.7187 37.9715 36.0028 37.59 36H34.41C34.0285 36.0028 33.7058 35.7187 33.66 35.34L32.46 25.68C32.4083 25.252 32.5431 24.8225 32.8302 24.5009C33.1174 24.1794 33.5289 23.9969 33.96 24Z" />
      </g>
    </symbol>
    <symbol id="notifications_on" viewBox="0 0 72 72" xmlns="http://www.w3.org/2000/svg">
      <g id="Icon=notifications_on">
        <path id="Icon color" fill-rule="evenodd" clip-rule="evenodd" d="M54.0001 38.28C54.0022 40.6661 54.9518 42.9538 56.6401 44.64L59.1301 47.13C59.6843 47.6888 59.9967 48.443 60.0001 49.23V51C60.0001 52.6569 58.6569 54 57.0001 54H15.0001C13.3432 54 12.0001 52.6569 12.0001 51V49.23C12.0034 48.443 12.3158 47.6888 12.8701 47.13L15.3601 44.64C17.0484 42.9538 17.998 40.6661 18.0001 38.28V30C18.0001 26.1053 19.2633 22.3157 21.6001 19.2L24.3001 15.6C25.9998 13.3337 28.6672 12 31.5001 12H33.0001V7.5C33.0001 6.67157 33.6716 6 34.5001 6H37.5001C38.3285 6 39.0001 6.67157 39.0001 7.5V12H40.5001C43.3329 12 46.0004 13.3337 47.7001 15.6L50.4001 19.2C52.7369 22.3157 54.0001 26.1053 54.0001 30V38.28ZM36.0001 66C39.3138 66 42.0001 63.3137 42.0001 60H30.0001C30.0001 63.3137 32.6864 66 36.0001 66ZM16.7701 15.63C17.1279 15.1642 17.048 14.4979 16.5901 14.13L13.5901 11.79C13.3392 11.5814 13.0143 11.4839 12.6901 11.52C12.406 11.5834 12.1582 11.7557 12.0001 12C8.42418 16.7579 6.33649 22.4677 6.00006 28.41C5.96995 28.8238 6.12358 29.2298 6.42006 29.52C6.69479 29.8272 7.08796 30.0019 7.50006 30H10.5001C11.2995 29.9857 11.9532 29.3582 12.0001 28.56C12.3123 23.8807 13.9686 19.391 16.7701 15.63ZM59.1901 11.52C59.5166 11.5558 59.8118 11.7308 60.0001 12C63.5633 16.7647 65.6496 22.4706 66.0001 28.41C65.9944 28.8233 65.8338 29.2194 65.5501 29.52C65.2709 29.8211 64.8806 29.9945 64.4701 30H61.4701C60.6762 29.9847 60.0317 29.3534 60.0001 28.56C59.6441 23.8651 57.9352 19.374 55.0801 15.63C54.7222 15.1642 54.8021 14.4979 55.2601 14.13L58.2601 11.79C58.5247 11.5854 58.857 11.4889 59.1901 11.52Z" />
      </g>
    </symbol>
    <symbol id="notifications_on_outlined" viewBox="0 0 72 72" xmlns="http://www.w3.org/2000/svg">
      <g id="Icon=notifications_on_outlined">
        <path id="Icon color" fill-rule="evenodd" clip-rule="evenodd" d="M56.6401 44.64C54.9518 42.9538 54.0022 40.6661 54.0001 38.28V30C54.0001 26.1053 52.7369 22.3157 50.4001 19.2L47.7001 15.6C46.0004 13.3337 43.3329 12 40.5001 12H39.0001V7.5C39.0001 6.67157 38.3285 6 37.5001 6H34.5001C33.6716 6 33.0001 6.67157 33.0001 7.5V12H31.5001C28.6672 12 25.9998 13.3337 24.3001 15.6L21.6001 19.2C19.2633 22.3157 18.0001 26.1053 18.0001 30V38.28C17.998 40.6661 17.0484 42.9538 15.3601 44.64L12.8701 47.13C12.3158 47.6888 12.0034 48.443 12.0001 49.23V51C12.0001 52.6569 13.3432 54 15.0001 54H57.0001C58.6569 54 60.0001 52.6569 60.0001 51V49.23C59.9967 48.443 59.6843 47.6888 59.1301 47.13L56.6401 44.64ZM48.0001 48H24.0001V30C24.0001 27.4036 24.8422 24.8772 26.4001 22.8L29.1001 19.2C29.6666 18.4446 30.5558 18 31.5001 18H40.5001C41.4443 18 42.3335 18.4446 42.9001 19.2L45.6001 22.8C47.1579 24.8772 48.0001 27.4036 48.0001 30V48ZM42.0001 60C42.0001 63.3137 39.3138 66 36.0001 66C32.6864 66 30.0001 63.3137 30.0001 60H42.0001ZM16.7701 15.63C17.1279 15.1642 17.048 14.4979 16.5901 14.13L13.5901 11.79C13.3392 11.5814 13.0143 11.4839 12.6901 11.52C12.406 11.5834 12.1582 11.7557 12.0001 12C8.42418 16.7579 6.33649 22.4677 6.00006 28.41C5.96995 28.8238 6.12358 29.2298 6.42006 29.52C6.69479 29.8272 7.08796 30.0019 7.50006 30H10.5001C11.2995 29.9857 11.9532 29.3582 12.0001 28.56C12.3123 23.8807 13.9686 19.391 16.7701 15.63ZM59.1901 11.52C59.5166 11.5558 59.8118 11.7308 60.0001 12C63.5633 16.7647 65.6496 22.4706 66.0001 28.41C65.9944 28.8233 65.8338 29.2194 65.5501 29.52C65.2709 29.8211 64.8806 29.9945 64.4701 30H61.4701C60.6762 29.9847 60.0317 29.3534 60.0001 28.56C59.6441 23.8651 57.9352 19.374 55.0801 15.63C54.7222 15.1642 54.8021 14.4979 55.2601 14.13L58.2601 11.79C58.5247 11.5854 58.857 11.4889 59.1901 11.52Z" />
      </g>
    </symbol>
    <symbol id="notifications_outlined" viewBox="0 0 72 72" xmlns="http://www.w3.org/2000/svg">
      <g id="Icon=notifications_outlined">
        <path id="Icon color" fill-rule="evenodd" clip-rule="evenodd" d="M59.13 47.13L56.64 44.64C54.9517 42.9538 54.0021 40.6661 54 38.28V30C54 26.1053 52.7368 22.3157 50.4 19.2L47.7 15.6C46.0003 13.3337 43.3328 12 40.5 12H39V7.5C39 6.67157 38.3284 6 37.5 6H34.5C33.6716 6 33 6.67157 33 7.5V12H31.5C28.6672 12 25.9997 13.3337 24.3 15.6L21.6 19.2C19.2632 22.3157 18 26.1053 18 30V38.28C17.9979 40.6661 17.0483 42.9538 15.36 44.64L12.87 47.13C12.3158 47.6888 12.0033 48.443 12 49.23V51C12 52.6569 13.3431 54 15 54H57C58.6569 54 60 52.6569 60 51V49.23C59.9967 48.443 59.6842 47.6888 59.13 47.13ZM48 48H24V30C24 27.4036 24.8421 24.8772 26.4 22.8L29.1 19.2C29.6666 18.4446 30.5557 18 31.5 18H40.5C41.4443 18 42.3334 18.4446 42.9 19.2L45.6 22.8C47.1579 24.8772 48 27.4036 48 30V48ZM36 66C39.3137 66 42 63.3137 42 60H30C30 63.3137 32.6863 66 36 66Z" />
      </g>
    </symbol>      
    <symbol id="message_failed" viewBox="0 0 72 72" xmlns="http://www.w3.org/2000/svg">
      <g id="Icon=message_failed">
        <path id="Icon color" fill-rule="evenodd" clip-rule="evenodd" d="M54 6H18C11.3726 6 6 11.3726 6 18V64.5C6 65.3284 6.67157 66 7.5 66C7.89635 65.9977 8.27498 65.8354 8.55 65.55L17.55 56.55C19.273 54.8724 21.5957 53.9542 24 54H54C60.6274 54 66 48.6274 66 42V18C66 11.3726 60.6274 6 54 6ZM39 40.5C39 41.3284 38.3284 42 37.5 42H34.5C33.6716 42 33 41.3284 33 40.5V37.5C33 36.6716 33.6716 36 34.5 36H37.5C38.3284 36 39 36.6716 39 37.5V40.5ZM37.59 30C37.9715 30.0028 38.2942 29.7187 38.34 29.34L39.54 19.68C39.5917 19.252 39.4569 18.8225 39.1698 18.5009C38.8826 18.1794 38.4711 17.9969 38.04 18H33.96C33.5289 17.9969 33.1174 18.1794 32.8302 18.5009C32.5431 18.8225 32.4083 19.252 32.46 19.68L33.66 29.34C33.7058 29.7187 34.0285 30.0028 34.41 30H37.59Z" />
      </g>
    </symbol>
    <symbol id="message_failed_outlined" viewBox="0 0 72 72" xmlns="http://www.w3.org/2000/svg">
      <g id="Icon=message_failed_outlined">
        <path id="Icon color" fill-rule="evenodd" clip-rule="evenodd" d="M18 6H54C60.6274 6 66 11.3726 66 18V42C66 48.6274 60.6274 54 54 54H24C21.5957 53.9542 19.273 54.8724 17.55 56.55L8.55 65.55C8.27498 65.8354 7.89635 65.9977 7.5 66C6.67157 66 6 65.3284 6 64.5V18C6 11.3726 11.3726 6 18 6ZM54 48C57.3137 48 60 45.3137 60 42V18C60 14.6863 57.3137 12 54 12H18C14.6863 12 12 14.6863 12 18V53.64L13.38 52.38C16.1985 49.5686 20.019 47.9929 24 48H54ZM37.5 36H34.5C33.6716 36 33 36.6716 33 37.5V40.5C33 41.3284 33.6716 42 34.5 42H37.5C38.3284 42 39 41.3284 39 40.5V37.5C39 36.6716 38.3284 36 37.5 36ZM37.68 30H34.5H34.41C34.0285 30.0028 33.7058 29.7187 33.66 29.34L32.46 19.68C32.4083 19.252 32.5431 18.8225 32.8302 18.5009C33.1174 18.1794 33.5289 17.9969 33.96 18H38.13C38.5611 17.9969 38.9726 18.1794 39.2597 18.5009C39.5469 18.8225 39.6817 19.252 39.63 19.68L38.43 29.34C38.3842 29.7187 38.0615 30.0028 37.68 30Z" />
      </g>
    </symbol>
    <symbol id="warning" viewBox="0 0 72 72" xmlns="http://www.w3.org/2000/svg">
      <g id="Icon=warning">
        <path id="Icon color" fill-rule="evenodd" clip-rule="evenodd" d="M68.7154 58.89L38.4383 7.11C38.0278 6.42363 37.2877 6.00243 36.4878 6H35.5876C34.7877 6.00243 34.0476 6.42363 33.6371 7.11L3.29995 58.89C2.91027 59.6001 2.91027 60.4599 3.29995 61.17L3.72005 61.86C4.10891 62.5718 4.85937 63.0104 5.67051 63H66.3449C67.156 63.0104 67.9065 62.5718 68.2953 61.86L68.7154 61.17C69.1051 60.4599 69.1051 59.6001 68.7154 58.89ZM39.0084 49.5C39.0084 50.3284 38.3367 51 37.508 51H34.5073C33.6787 51 33.007 50.3284 33.007 49.5V46.5C33.007 45.6716 33.6787 45 34.5073 45H37.508C38.3367 45 39.0084 45.6716 39.0084 46.5V49.5ZM37.5981 39C37.9796 39.0028 38.3025 38.7187 38.3482 38.34L39.5485 28.68C39.6003 28.252 39.4654 27.8225 39.1782 27.5009C38.891 27.1794 38.4793 26.9969 38.0482 27H33.9672C33.536 26.9969 33.1244 27.1794 32.8372 27.5009C32.55 27.8225 32.4151 28.252 32.4669 28.68L33.6671 38.34C33.7129 38.7187 34.0358 39.0028 34.4173 39H37.5981Z" />
      </g>
    </symbol>
    <symbol id="warning_outlined" viewBox="0 0 72 72" xmlns="http://www.w3.org/2000/svg">
      <g id="Icon=warning_outlined">
        <path id="Icon color" fill-rule="evenodd" clip-rule="evenodd" d="M38.4383 7.11L68.7154 58.89C69.1051 59.6001 69.1051 60.4599 68.7154 61.17L68.2953 61.86C67.9065 62.5718 67.156 63.0104 66.3449 63H5.67051C4.85937 63.0104 4.10891 62.5718 3.72005 61.86L3.29995 61.17C2.91027 60.4599 2.91027 59.6001 3.29995 58.89L33.6371 7.11C34.0476 6.42363 34.7877 6.00243 35.5876 6H36.4878C37.2877 6.00243 38.0278 6.42363 38.4383 7.11ZM36.0077 15L11.3719 57H60.6135L36.0077 15ZM34.5073 45C33.6787 45 33.007 45.6716 33.007 46.5V49.5C33.007 50.3284 33.6787 51 34.5073 51H37.508C38.3367 51 39.0084 50.3284 39.0084 49.5V46.5C39.0084 45.6716 38.3367 45 37.508 45H34.5073ZM33.6671 38.34L32.4669 28.68C32.4151 28.252 32.55 27.8225 32.8372 27.5009C33.1244 27.1794 33.536 26.9969 33.9672 27H38.0482C38.4793 26.9969 38.891 27.1794 39.1782 27.5009C39.4654 27.8225 39.6003 28.252 39.5485 28.68L38.3482 38.34C38.3025 38.7187 37.9796 39.0028 37.5981 39H34.4173C34.0358 39.0028 33.7129 38.7187 33.6671 38.34Z" />
      </g>
    </symbol>
    <symbol id="drag" viewBox="0 0 72 72" xmlns="http://www.w3.org/2000/svg">
      <g id="Icon=drag">
        <path id="Icon color" fill-rule="evenodd" clip-rule="evenodd" d="M27 24C30.3137 24 33 21.3137 33 18C33 14.6863 30.3137 12 27 12C23.6863 12 21 14.6863 21 18C21 21.3137 23.6863 24 27 24ZM21 36C21 32.6863 23.6863 30 27 30C30.3137 30 33 32.6863 33 36C33 39.3137 30.3137 42 27 42C23.6863 42 21 39.3137 21 36ZM27 48C23.6863 48 21 50.6863 21 54C21 57.3137 23.6863 60 27 60C30.3137 60 33 57.3137 33 54C33 50.6863 30.3137 48 27 48ZM51 18C51 21.3137 48.3137 24 45 24C41.6863 24 39 21.3137 39 18C39 14.6863 41.6863 12 45 12C48.3137 12 51 14.6863 51 18ZM45 30C41.6863 30 39 32.6863 39 36C39 39.3137 41.6863 42 45 42C48.3137 42 51 39.3137 51 36C51 32.6863 48.3137 30 45 30ZM39 54C39 50.6863 41.6863 48 45 48C48.3137 48 51 50.6863 51 54C51 57.3137 48.3137 60 45 60C41.6863 60 39 57.3137 39 54Z" />
      </g>
    </symbol>
    <symbol id="delete" viewBox="0 0 72 72" xmlns="http://www.w3.org/2000/svg">
      <g id="Icon=delete">
        <path id="Icon color" fill-rule="evenodd" clip-rule="evenodd" d="M60 16.5V13.5C60 12.6716 59.3284 12 58.5 12H45V9C45 7.34315 43.6569 6 42 6H30C28.3431 6 27 7.34315 27 9V12H13.5C12.6716 12 12 12.6716 12 13.5V16.5C12 17.3284 12.6716 18 13.5 18H58.5C59.3284 18 60 17.3284 60 16.5ZM23.61 66C20.4536 66.0077 17.8309 63.5687 17.61 60.42L15 24H57L54.45 60.42C54.2291 63.5687 51.6064 66.0077 48.45 66H23.61Z" />
      </g>
    </symbol>
    <symbol id="done" viewBox="0 0 72 72" xmlns="http://www.w3.org/2000/svg">
      <g id="Icon=done">
        <path id="Icon color" d="M59.5499 21.75L27.7499 53.55C27.4683 53.834 27.0849 53.9937 26.6849 53.9937C26.285 53.9937 25.9016 53.834 25.6199 53.55L9.44992 37.38C9.16595 37.0983 9.00623 36.7149 9.00623 36.315C9.00623 35.915 9.16595 35.5316 9.44992 35.25L11.5499 33.15C11.8316 32.866 12.215 32.7063 12.6149 32.7063C13.0149 32.7063 13.3983 32.866 13.6799 33.15L26.6699 46.14L55.3199 17.49C55.9134 16.9146 56.8565 16.9146 57.4499 17.49L59.5499 19.62C59.8339 19.9016 59.9936 20.285 59.9936 20.685C59.9936 21.0849 59.8339 21.4683 59.5499 21.75Z" />
      </g>
    </symbol>
    <symbol id="clear" viewBox="0 0 72 72" xmlns="http://www.w3.org/2000/svg">
      <g id="Icon=clear">
        <path id="Icon color" d="M53.5499 49.3199C53.8339 49.6016 53.9936 49.985 53.9936 50.3849C53.9936 50.7849 53.8339 51.1683 53.5499 51.4499L51.4499 53.5499C51.1683 53.8339 50.7849 53.9936 50.3849 53.9936C49.985 53.9936 49.6016 53.8339 49.3199 53.5499L35.9999 40.2299L22.6799 53.5499C22.3983 53.8339 22.0149 53.9936 21.6149 53.9936C21.215 53.9936 20.8316 53.8339 20.5499 53.5499L18.4499 51.4499C18.166 51.1683 18.0062 50.7849 18.0062 50.3849C18.0062 49.985 18.166 49.6016 18.4499 49.3199L31.7699 35.9999L18.4499 22.6799C18.166 22.3983 18.0062 22.0149 18.0062 21.6149C18.0062 21.215 18.166 20.8316 18.4499 20.5499L20.5499 18.4499C20.8316 18.166 21.215 18.0062 21.6149 18.0062C22.0149 18.0062 22.3983 18.166 22.6799 18.4499L35.9999 31.7699L49.3199 18.4499C49.6016 18.166 49.985 18.0062 50.3849 18.0062C50.7849 18.0062 51.1683 18.166 51.4499 18.4499L53.5499 20.5499C53.8339 20.8316 53.9936 21.215 53.9936 21.6149C53.9936 22.0149 53.8339 22.3983 53.5499 22.6799L40.2299 35.9999L53.5499 49.3199Z" />
      </g>
    </symbol>
    <symbol id="plus" viewBox="0 0 72 72" xmlns="http://www.w3.org/2000/svg">
      <g id="Icon=plus">
        <path id="Icon color" d="M57 34.5V37.5C57 38.3284 56.3284 39 55.5 39H39V55.5C39 56.3284 38.3284 57 37.5 57H34.5C33.6716 57 33 56.3284 33 55.5V39H16.5C15.6716 39 15 38.3284 15 37.5V34.5C15 33.6716 15.6716 33 16.5 33H33V16.5C33 15.6716 33.6716 15 34.5 15H37.5C38.3284 15 39 15.6716 39 16.5V33H55.5C56.3284 33 57 33.6716 57 34.5Z" fill="black"/>
      </g>
    </symbol>
    <symbol id="more_vertical" viewBox="0 0 72 72" xmlns="http://www.w3.org/2000/svg">
      <g id="Icon=more_vertical">
        <path id="Icon color" fill-rule="evenodd" clip-rule="evenodd" d="M30 18C30 14.6863 32.6863 12 36 12C39.3137 12 42 14.6863 42 18C42 21.3137 39.3137 24 36 24C32.6863 24 30 21.3137 30 18ZM36 30C32.6863 30 30 32.6863 30 36C30 39.3137 32.6863 42 36 42C39.3137 42 42 39.3137 42 36C42 32.6863 39.3137 30 36 30ZM30 54C30 50.6863 32.6863 48 36 48C39.3137 48 42 50.6863 42 54C42 57.3137 39.3137 60 36 60C32.6863 60 30 57.3137 30 54Z" />
      </g>
    </symbol>
    <symbol id="info" viewBox="0 0 72 72" xmlns="http://www.w3.org/2000/svg">
      <g id="Icon=info">
        <path id="Icon color" fill-rule="evenodd" clip-rule="evenodd" d="M6 36C6 19.4315 19.4315 6 36 6C43.9565 6 51.5871 9.16071 57.2132 14.7868C62.8393 20.4129 66 28.0435 66 36C66 52.5685 52.5685 66 36 66C19.4315 66 6 52.5685 6 36ZM12 36C12 49.2548 22.7452 60 36 60C42.3652 60 48.4697 57.4714 52.9706 52.9706C57.4714 48.4697 60 42.3652 60 36C60 22.7452 49.2548 12 36 12C22.7452 12 12 22.7452 12 36ZM39 37.5C39 36.6716 38.3284 36 37.5 36H34.5C33.6716 36 33 36.6716 33 37.5V46.5C33 47.3284 33.6716 48 34.5 48H37.5C38.3284 48 39 47.3284 39 46.5V37.5ZM37.5 24C38.3284 24 39 24.6716 39 25.5V28.5C39 29.3284 38.3284 30 37.5 30H34.5C33.6716 30 33 29.3284 33 28.5V25.5C33 24.6716 33.6716 24 34.5 24H37.5Z" />
      </g>
    </symbol>
    <symbol id="checkmark_circle_filled" viewBox="0 0 72 72" xmlns="http://www.w3.org/2000/svg">
      <g id="Icon=checkmark_circle_filled">
        <path id="Icon color" fill-rule="evenodd" clip-rule="evenodd" d="M6 36C6 19.4315 19.4315 6 36 6C43.9565 6 51.5871 9.16071 57.2132 14.7868C62.8393 20.4129 66 28.0435 66 36C66 52.5685 52.5685 66 36 66C19.4315 66 6 52.5685 6 36ZM32.19 46.05L49.05 29.19C49.6024 28.6106 49.6024 27.6994 49.05 27.12L47.46 25.53C46.8767 24.9583 45.9433 24.9583 45.36 25.53L31.14 39.75L26.64 35.28C26.3678 34.99 25.9878 34.8254 25.59 34.8254C25.1922 34.8254 24.8122 34.99 24.54 35.28L22.95 36.87C22.666 37.1517 22.5063 37.535 22.5063 37.935C22.5063 38.335 22.666 38.7183 22.95 39L30.09 46.05C30.3622 46.34 30.7422 46.5046 31.14 46.5046C31.5378 46.5046 31.9178 46.34 32.19 46.05Z" />
      </g>
    </symbol>
    <symbol id="checkmark_circle_outlined" viewBox="0 0 72 72" xmlns="http://www.w3.org/2000/svg">
      <g id="Icon=checkmark_circle_outlined">
        <path id="Icon color" fill-rule="evenodd" clip-rule="evenodd" d="M36 6C19.4315 6 6 19.4315 6 36C6 52.5685 19.4315 66 36 66C52.5685 66 66 52.5685 66 36C66 28.0435 62.8393 20.4129 57.2132 14.7868C51.5871 9.16071 43.9565 6 36 6ZM36 60C22.7452 60 12 49.2548 12 36C12 22.7452 22.7452 12 36 12C49.2548 12 60 22.7452 60 36C60 42.3652 57.4714 48.4697 52.9706 52.9706C48.4697 57.4714 42.3652 60 36 60ZM45.36 25.47C45.9433 24.8983 46.8767 24.8983 47.46 25.47L48.96 27.06C49.244 27.3417 49.4037 27.725 49.4037 28.125C49.4037 28.525 49.244 28.9084 48.96 29.19L32.1 46.05C31.8278 46.34 31.4478 46.5046 31.05 46.5046C30.6522 46.5046 30.2722 46.34 30 46.05L22.95 38.94C22.666 38.6584 22.5063 38.275 22.5063 37.875C22.5063 37.475 22.666 37.0917 22.95 36.81L24.54 35.22C24.8122 34.93 25.1922 34.7654 25.59 34.7654C25.9878 34.7654 26.3678 34.93 26.64 35.22L31.14 39.69L45.36 25.47Z" />
      </g>
    </symbol>
  </defs>
</svg>