<svg>
  <defs>
    <symbol id="caret_right" viewBox="0 0 24 24" xmlns="http://www.w3.org/2000/svg">
      <g id="Icon=caret_right">
        <path id="Icon color" d="M11.0601 16.1401C10.9662 16.2347 10.8384 16.288 10.7051 16.288C10.5717 16.288 10.4439 16.2347 10.3501 16.1401L10.1501 15.9401C10.0524 15.846 9.99809 15.7156 10.0001 15.5801V8.42006C9.99809 8.28447 10.0524 8.15413 10.1501 8.06006L10.3501 7.86006C10.4439 7.7654 10.5717 7.71216 10.7051 7.71216C10.8384 7.71216 10.9662 7.7654 11.0601 7.86006L14.8501 11.6501C14.9467 11.7408 15.0016 11.8675 15.0016 12.0001C15.0016 12.1326 14.9467 12.2593 14.8501 12.3501L11.0601 16.1401Z" />
      </g>
    </symbol>
    <symbol id="caret_up" viewBox="0 0 24 24" xmlns="http://www.w3.org/2000/svg">
      <g id="Icon=caret_up">
        <path id="Icon color" d="M16.1401 12.9401C16.2347 13.0339 16.288 13.1617 16.288 13.2951C16.288 13.4284 16.2347 13.5562 16.1401 13.6501L15.9401 13.8501C15.846 13.9477 15.7156 14.002 15.5801 14.0001H8.42006C8.28447 14.002 8.15413 13.9477 8.06006 13.8501L7.86006 13.6501C7.7654 13.5562 7.71216 13.4284 7.71216 13.2951C7.71216 13.1617 7.7654 13.0339 7.86006 12.9401L11.6501 9.15005C11.7408 9.05338 11.8675 8.99854 12.0001 8.99854C12.1326 8.99854 12.2593 9.05338 12.3501 9.15005L16.1401 12.9401Z" />
      </g>
    </symbol>
    <symbol id="caret_down" viewBox="0 0 24 24" xmlns="http://www.w3.org/2000/svg">
      <g id="Icon=caret_down">
        <path id="Icon color" d="M7.86006 11.0601C7.7654 10.9662 7.71216 10.8384 7.71216 10.7051C7.71216 10.5717 7.7654 10.4439 7.86006 10.3501L8.06006 10.1501C8.15413 10.0524 8.28447 9.99809 8.42006 10.0001H15.5801C15.7156 9.99809 15.846 10.0524 15.9401 10.1501L16.1401 10.3501C16.2347 10.4439 16.288 10.5717 16.288 10.7051C16.288 10.8384 16.2347 10.9662 16.1401 11.0601L12.3501 14.8501C12.2593 14.9467 12.1326 15.0016 12.0001 15.0016C11.8675 15.0016 11.7408 14.9467 11.6501 14.8501L7.86006 11.0601Z" />
      </g>
    </symbol>
    <symbol id="caret_left" viewBox="0 0 24 24" xmlns="http://www.w3.org/2000/svg">
      <g id="Icon=caret_left">
        <path id="Icon color" d="M12.9401 7.86006C13.0339 7.7654 13.1617 7.71216 13.2951 7.71216C13.4284 7.71216 13.5562 7.7654 13.6501 7.86006L13.8501 8.06006C13.9477 8.15413 14.002 8.28447 14.0001 8.42006V15.5801C14.002 15.7156 13.9477 15.846 13.8501 15.9401L13.6501 16.1401C13.5562 16.2347 13.4284 16.288 13.2951 16.288C13.1617 16.288 13.0339 16.2347 12.9401 16.1401L9.15005 12.3501C9.05338 12.2593 8.99854 12.1326 8.99854 12.0001C8.99854 11.8675 9.05338 11.7408 9.15005 11.6501L12.9401 7.86006Z" />
      </g>
    </symbol>   
    <symbol id="chevron_down" viewBox="0 0 24 24" xmlns="http://www.w3.org/2000/svg">
      <g id="Icon=chevron_down">
        <path id="Icon color" d="M12.72 15.78C12.5795 15.9207 12.3888 15.9999 12.19 16H11.81C11.6116 15.9977 11.4217 15.9189 11.28 15.78L6.14997 10.64C6.05532 10.5462 6.00208 10.4184 6.00208 10.285C6.00208 10.1517 6.05532 10.0239 6.14997 9.93004L6.85997 9.22004C6.95214 9.12598 7.07828 9.07297 7.20997 9.07297C7.34166 9.07297 7.46781 9.12598 7.55997 9.22004L12 13.67L16.44 9.22004C16.5339 9.12539 16.6617 9.07214 16.795 9.07214C16.9283 9.07214 17.0561 9.12539 17.15 9.22004L17.85 9.93004C17.9446 10.0239 17.9979 10.1517 17.9979 10.285C17.9979 10.4184 17.9446 10.5462 17.85 10.64L12.72 15.78Z" />
      </g>
    </symbol>
    <symbol id="chevron_left" viewBox="0 0 24 24" xmlns="http://www.w3.org/2000/svg">
      <g id="Icon=chevron_left">
        <path id="Icon color" d="M8.22 12.72C8.07931 12.5795 8.00018 12.3888 8 12.19V11.81C8.0023 11.6116 8.08112 11.4217 8.22 11.28L13.36 6.14997C13.4539 6.05532 13.5817 6.00208 13.715 6.00208C13.8483 6.00208 13.9761 6.05532 14.07 6.14997L14.78 6.85997C14.8741 6.95214 14.9271 7.07828 14.9271 7.20997C14.9271 7.34166 14.8741 7.46781 14.78 7.55997L10.33 12L14.78 16.44C14.8747 16.5339 14.9279 16.6617 14.9279 16.795C14.9279 16.9283 14.8747 17.0561 14.78 17.15L14.07 17.85C13.9761 17.9446 13.8483 17.9979 13.715 17.9979C13.5817 17.9979 13.4539 17.9446 13.36 17.85L8.22 12.72Z" />
      </g>
    </symbol>
    <symbol id="chevron_right" viewBox="0 0 24 24" xmlns="http://www.w3.org/2000/svg">
      <g id="Icon=chevron_right">
        <path id="Icon color" d="M15.78 11.28C15.9207 11.4205 15.9999 11.6111 16 11.81V12.19C15.9977 12.3884 15.9189 12.5783 15.78 12.72L10.64 17.85C10.5462 17.9446 10.4184 17.9979 10.285 17.9979C10.1517 17.9979 10.0239 17.9446 9.93004 17.85L9.22004 17.14C9.12598 17.0478 9.07297 16.9217 9.07297 16.79C9.07297 16.6583 9.12598 16.5321 9.22004 16.44L13.67 12L9.22004 7.55997C9.12539 7.46609 9.07214 7.33829 9.07214 7.20497C9.07214 7.07166 9.12539 6.94386 9.22004 6.84997L9.93004 6.14997C10.0239 6.05532 10.1517 6.00208 10.285 6.00208C10.4184 6.00208 10.5462 6.05532 10.64 6.14997L15.78 11.28Z" />
      </g>
    </symbol>
    <symbol id="chevron_up" viewBox="0 0 24 24" xmlns="http://www.w3.org/2000/svg">
      <g id="Icon=chevron_up">
        <path id="Icon color" d="M11.28 8.22C11.4205 8.07931 11.6111 8.00018 11.81 8H12.19C12.3884 8.0023 12.5783 8.08112 12.72 8.22L17.85 13.36C17.9446 13.4539 17.9979 13.5817 17.9979 13.715C17.9979 13.8483 17.9446 13.9761 17.85 14.07L17.14 14.78C17.0478 14.8741 16.9217 14.9271 16.79 14.9271C16.6583 14.9271 16.5321 14.8741 16.44 14.78L12 10.33L7.55997 14.78C7.46609 14.8747 7.33829 14.9279 7.20497 14.9279C7.07166 14.9279 6.94386 14.8747 6.84997 14.78L6.14997 14.07C6.05532 13.9761 6.00208 13.8483 6.00208 13.715C6.00208 13.5817 6.05532 13.4539 6.14997 13.36L11.28 8.22Z" />
      </g>
    </symbol>
    <symbol id="error_outlined" viewBox="0 0 24 24" xmlns="http://www.w3.org/2000/svg">
      <g id="Icon=error_outlined">
        <path id="Icon color" fill-rule="evenodd" clip-rule="evenodd" d="M2 12C2 6.47715 6.47715 2 12 2C14.6522 2 17.1957 3.05357 19.0711 4.92893C20.9464 6.8043 22 9.34784 22 12C22 17.5228 17.5228 22 12 22C6.47715 22 2 17.5228 2 12ZM4 12C4 16.4183 7.58172 20 12 20C14.1217 20 16.1566 19.1571 17.6569 17.6569C19.1571 16.1566 20 14.1217 20 12C20 7.58172 16.4183 4 12 4C7.58172 4 4 7.58172 4 12ZM11.5 14C11.2239 14 11 14.2239 11 14.5V15.5C11 15.7761 11.2239 16 11.5 16H12.5C12.7761 16 13 15.7761 13 15.5V14.5C13 14.2239 12.7761 14 12.5 14H11.5ZM11.32 8H12.68C12.8237 7.99896 12.9609 8.05979 13.0566 8.16698C13.1523 8.27417 13.1972 8.41735 13.18 8.56L12.78 11.78C12.7647 11.9062 12.6572 12.0009 12.53 12H11.47C11.3428 12.0009 11.2353 11.9062 11.22 11.78L10.82 8.56C10.8028 8.41735 10.8477 8.27417 10.9434 8.16698C11.0391 8.05979 11.1763 7.99896 11.32 8Z" />
      </g>
    </symbol>
    <symbol id="notifications_on" viewBox="0 0 24 24" xmlns="http://www.w3.org/2000/svg">
      <g id="Icon=notifications_on">
        <path id="Icon color" fill-rule="evenodd" clip-rule="evenodd" d="M18 12.76C18.0007 13.5554 18.3173 14.3179 18.88 14.88L19.71 15.71C19.8948 15.8963 19.9989 16.1477 20 16.41V17C20 17.5523 19.5523 18 19 18H5.00002C4.44774 18 4.00002 17.5523 4.00002 17V16.41C4.00113 16.1477 4.10528 15.8963 4.29002 15.71L5.12002 14.88C5.68279 14.3179 5.99932 13.5554 6.00002 12.76V10C6.00002 8.70178 6.42109 7.43858 7.20002 6.4L8.10002 5.2C8.66658 4.44458 9.55575 4 10.5 4H11V2.5C11 2.22386 11.2239 2 11.5 2H12.5C12.7762 2 13 2.22386 13 2.5V4H13.5C14.4443 4 15.3335 4.44458 15.9 5.2L16.8 6.4C17.579 7.43858 18 8.70178 18 10V12.76ZM12 22C13.1046 22 14 21.1046 14 20H10C10 21.1046 10.8955 22 12 22ZM5.59002 5.21C5.70931 5.05475 5.68266 4.83262 5.53002 4.71L4.53002 3.93C4.44641 3.86047 4.3381 3.82797 4.23002 3.84C4.13534 3.86112 4.05275 3.91858 4.00002 4C2.80806 5.58596 2.11216 7.48923 2.00002 9.47C1.98998 9.60792 2.04119 9.74327 2.14002 9.84C2.2316 9.94239 2.36265 10.0006 2.50002 10H3.50002C3.76651 9.99523 3.98439 9.78607 4.00002 9.52C4.1041 7.96023 4.6562 6.46367 5.59002 5.21ZM19.73 3.84C19.8389 3.85194 19.9373 3.91026 20 4C21.1878 5.58824 21.8832 7.4902 22 9.47C21.9981 9.60777 21.9446 9.73981 21.85 9.84C21.757 9.94035 21.6269 9.99818 21.49 10H20.49C20.2254 9.99492 20.0106 9.78447 20 9.52C19.8814 7.95503 19.3117 6.45798 18.36 5.21C18.2407 5.05475 18.2674 4.83262 18.42 4.71L19.42 3.93C19.5082 3.86181 19.619 3.82964 19.73 3.84Z" />
      </g>
    </symbol>
    <symbol id="notifications_on_outlined" viewBox="0 0 24 24" xmlns="http://www.w3.org/2000/svg">
      <g id="Icon=notifications_on_outlined">
        <path id="Icon color" fill-rule="evenodd" clip-rule="evenodd" d="M18.88 14.88C18.3173 14.3179 18.0007 13.5554 18 12.76V10C18 8.70178 17.579 7.43858 16.8 6.4L15.9 5.2C15.3335 4.44458 14.4443 4 13.5 4H13V2.5C13 2.22386 12.7762 2 12.5 2H11.5C11.2239 2 11 2.22386 11 2.5V4H10.5C9.55575 4 8.66658 4.44458 8.10002 5.2L7.20002 6.4C6.42109 7.43858 6.00002 8.70178 6.00002 10V12.76C5.99932 13.5554 5.68279 14.3179 5.12002 14.88L4.29002 15.71C4.10528 15.8963 4.00113 16.1477 4.00002 16.41V17C4.00002 17.5523 4.44774 18 5.00002 18H19C19.5523 18 20 17.5523 20 17V16.41C19.9989 16.1477 19.8948 15.8963 19.71 15.71L18.88 14.88ZM16 16H8.00002V10C8.00002 9.13452 8.28073 8.29238 8.80002 7.6L9.70002 6.4C9.88888 6.14819 10.1853 6 10.5 6H13.5C13.8148 6 14.1112 6.14819 14.3 6.4L15.2 7.6C15.7193 8.29238 16 9.13452 16 10V16ZM14 20C14 21.1046 13.1046 22 12 22C10.8955 22 10 21.1046 10 20H14ZM5.59002 5.21C5.70931 5.05475 5.68266 4.83262 5.53002 4.71L4.53002 3.93C4.44641 3.86047 4.3381 3.82797 4.23002 3.84C4.13534 3.86112 4.05275 3.91858 4.00002 4C2.80806 5.58596 2.11216 7.48923 2.00002 9.47C1.98998 9.60792 2.04119 9.74327 2.14002 9.84C2.2316 9.94239 2.36265 10.0006 2.50002 10H3.50002C3.76651 9.99523 3.98439 9.78607 4.00002 9.52C4.1041 7.96023 4.6562 6.46367 5.59002 5.21ZM19.73 3.84C19.8389 3.85194 19.9373 3.91026 20 4C21.1878 5.58824 21.8832 7.4902 22 9.47C21.9981 9.60777 21.9446 9.73981 21.85 9.84C21.757 9.94035 21.6269 9.99818 21.49 10H20.49C20.2254 9.99492 20.0106 9.78447 20 9.52C19.8814 7.95503 19.3117 6.45798 18.36 5.21C18.2407 5.05475 18.2674 4.83262 18.42 4.71L19.42 3.93C19.5082 3.86181 19.619 3.82964 19.73 3.84Z" />
      </g>
    </symbol>
    <symbol id="notifications_outlined" viewBox="0 0 24 24" xmlns="http://www.w3.org/2000/svg">
      <g id="Icon=notifications_outlined">
        <path id="Icon color" fill-rule="evenodd" clip-rule="evenodd" d="M19.71 15.71L18.88 14.88C18.3172 14.3179 18.0007 13.5554 18 12.76V10C18 8.70178 17.5789 7.43858 16.8 6.4L15.9 5.2C15.3334 4.44458 14.4443 4 13.5 4H13V2.5C13 2.22386 12.7761 2 12.5 2H11.5C11.2239 2 11 2.22386 11 2.5V4H10.5C9.55573 4 8.66656 4.44458 8.1 5.2L7.2 6.4C6.42107 7.43858 6 8.70178 6 10V12.76C5.9993 13.5554 5.68277 14.3179 5.12 14.88L4.29 15.71C4.10526 15.8963 4.0011 16.1477 4 16.41V17C4 17.5523 4.44772 18 5 18H19C19.5523 18 20 17.5523 20 17V16.41C19.9989 16.1477 19.8947 15.8963 19.71 15.71ZM16 16H8V10C8 9.13452 8.28071 8.29238 8.8 7.6L9.7 6.4C9.88885 6.14819 10.1852 6 10.5 6H13.5C13.8148 6 14.1111 6.14819 14.3 6.4L15.2 7.6C15.7193 8.29238 16 9.13452 16 10V16ZM12 22C13.1046 22 14 21.1046 14 20H10C10 21.1046 10.8954 22 12 22Z" />
      </g>
    </symbol>
    <symbol id="message_failed" viewBox="0 0 24 24" xmlns="http://www.w3.org/2000/svg">
      <g id="Icon=message_failed">
        <path id="Icon color" fill-rule="evenodd" clip-rule="evenodd" d="M18 2H6C3.79086 2 2 3.79086 2 6V21.5C2 21.7761 2.22386 22 2.5 22C2.63212 21.9992 2.75833 21.9451 2.85 21.85L5.85 18.85C6.42433 18.2908 7.19856 17.9847 8 18H18C20.2091 18 22 16.2091 22 14V6C22 3.79086 20.2091 2 18 2ZM13 13.5C13 13.7761 12.7761 14 12.5 14H11.5C11.2239 14 11 13.7761 11 13.5V12.5C11 12.2239 11.2239 12 11.5 12H12.5C12.7761 12 13 12.2239 13 12.5V13.5ZM12.53 10C12.6572 10.0009 12.7647 9.90624 12.78 9.78L13.18 6.56C13.1972 6.41735 13.1523 6.27417 13.0566 6.16698C12.9609 6.05979 12.8237 5.99896 12.68 6H11.32C11.1763 5.99896 11.0391 6.05979 10.9434 6.16698C10.8477 6.27417 10.8028 6.41735 10.82 6.56L11.22 9.78C11.2353 9.90624 11.3428 10.0009 11.47 10H12.53Z" />
      </g>
    </symbol>
    <symbol id="message_failed_outlined" viewBox="0 0 24 24" xmlns="http://www.w3.org/2000/svg">
      <g id="Icon=message_failed_outlined">
        <path id="Icon color" fill-rule="evenodd" clip-rule="evenodd" d="M6 2H18C20.2091 2 22 3.79086 22 6V14C22 16.2091 20.2091 18 18 18H8C7.19856 17.9847 6.42433 18.2908 5.85 18.85L2.85 21.85C2.75833 21.9451 2.63212 21.9992 2.5 22C2.22386 22 2 21.7761 2 21.5V6C2 3.79086 3.79086 2 6 2ZM18 16C19.1046 16 20 15.1046 20 14V6C20 4.89543 19.1046 4 18 4H6C4.89543 4 4 4.89543 4 6V17.88L4.46 17.46C5.39951 16.5229 6.67301 15.9976 8 16H18ZM12.5 12H11.5C11.2239 12 11 12.2239 11 12.5V13.5C11 13.7761 11.2239 14 11.5 14H12.5C12.7761 14 13 13.7761 13 13.5V12.5C13 12.2239 12.7761 12 12.5 12ZM12.56 10H11.5H11.47C11.3428 10.0009 11.2353 9.90624 11.22 9.78L10.82 6.56C10.8028 6.41735 10.8477 6.27417 10.9434 6.16698C11.0391 6.05979 11.1763 5.99896 11.32 6H12.71C12.8537 5.99896 12.9909 6.05979 13.0866 6.16698C13.1823 6.27417 13.2272 6.41735 13.21 6.56L12.81 9.78C12.7947 9.90624 12.6872 10.0009 12.56 10Z" />
      </g>
    </symbol>
    <symbol id="warning" viewBox="0 0 24 24" xmlns="http://www.w3.org/2000/svg">
      <g id="Icon=warning">
        <path id="Icon color" fill-rule="evenodd" clip-rule="evenodd" d="M22.9051 19.63L12.8128 2.37C12.6759 2.14121 12.4292 2.00081 12.1626 2H11.8625C11.5959 2.00081 11.3492 2.14121 11.2124 2.37L1.09998 19.63C0.97009 19.8667 0.97009 20.1533 1.09998 20.39L1.24002 20.62C1.36964 20.8573 1.61979 21.0035 1.89017 21H22.115C22.3853 21.0035 22.6355 20.8573 22.7651 20.62L22.9051 20.39C23.035 20.1533 23.035 19.8667 22.9051 19.63ZM13.0028 16.5C13.0028 16.7761 12.7789 17 12.5027 17H11.5024C11.2262 17 11.0023 16.7761 11.0023 16.5V15.5C11.0023 15.2239 11.2262 15 11.5024 15H12.5027C12.7789 15 13.0028 15.2239 13.0028 15.5V16.5ZM12.5327 13C12.6599 13.0009 12.7675 12.9062 12.7827 12.78L13.1828 9.56C13.2001 9.41735 13.1551 9.27417 13.0594 9.16698C12.9637 9.05979 12.8264 8.99896 12.6827 9H11.3224C11.1787 8.99896 11.0415 9.05979 10.9457 9.16698C10.85 9.27417 10.805 9.41735 10.8223 9.56L11.2224 12.78C11.2376 12.9062 11.3453 13.0009 11.4724 13H12.5327Z" />
      </g>
    </symbol>
    <symbol id="warning_outlined" viewBox="0 0 24 24" xmlns="http://www.w3.org/2000/svg">
      <g id="Icon=warning_outlined">
        <path id="Icon color" fill-rule="evenodd" clip-rule="evenodd" d="M12.8128 2.37L22.9051 19.63C23.035 19.8667 23.035 20.1533 22.9051 20.39L22.7651 20.62C22.6355 20.8573 22.3853 21.0035 22.115 21H1.89017C1.61979 21.0035 1.36964 20.8573 1.24002 20.62L1.09998 20.39C0.97009 20.1533 0.97009 19.8667 1.09998 19.63L11.2124 2.37C11.3492 2.14121 11.5959 2.00081 11.8625 2H12.1626C12.4292 2.00081 12.6759 2.14121 12.8128 2.37ZM12.0026 5L3.79062 19H20.2045L12.0026 5ZM11.5024 15C11.2262 15 11.0023 15.2239 11.0023 15.5V16.5C11.0023 16.7761 11.2262 17 11.5024 17H12.5027C12.7789 17 13.0028 16.7761 13.0028 16.5V15.5C13.0028 15.2239 12.7789 15 12.5027 15H11.5024ZM11.2224 12.78L10.8223 9.56C10.805 9.41735 10.85 9.27417 10.9457 9.16698C11.0415 9.05979 11.1787 8.99896 11.3224 9H12.6827C12.8264 8.99896 12.9637 9.05979 13.0594 9.16698C13.1551 9.27417 13.2001 9.41735 13.1828 9.56L12.7827 12.78C12.7675 12.9062 12.6599 13.0009 12.5327 13H11.4724C11.3453 13.0009 11.2376 12.9062 11.2224 12.78Z" />
      </g>
    </symbol>
    <symbol id="drag" viewBox="0 0 24 24" xmlns="http://www.w3.org/2000/svg">
      <g id="Icon=drag">
        <path id="Icon color" fill-rule="evenodd" clip-rule="evenodd" d="M9 8C10.1046 8 11 7.10457 11 6C11 4.89543 10.1046 4 9 4C7.89543 4 7 4.89543 7 6C7 7.10457 7.89543 8 9 8ZM7 12C7 10.8954 7.89543 10 9 10C10.1046 10 11 10.8954 11 12C11 13.1046 10.1046 14 9 14C7.89543 14 7 13.1046 7 12ZM9 16C7.89543 16 7 16.8954 7 18C7 19.1046 7.89543 20 9 20C10.1046 20 11 19.1046 11 18C11 16.8954 10.1046 16 9 16ZM17 6C17 7.10457 16.1046 8 15 8C13.8954 8 13 7.10457 13 6C13 4.89543 13.8954 4 15 4C16.1046 4 17 4.89543 17 6ZM15 10C13.8954 10 13 10.8954 13 12C13 13.1046 13.8954 14 15 14C16.1046 14 17 13.1046 17 12C17 10.8954 16.1046 10 15 10ZM13 18C13 16.8954 13.8954 16 15 16C16.1046 16 17 16.8954 17 18C17 19.1046 16.1046 20 15 20C13.8954 20 13 19.1046 13 18Z" />
      </g>
    </symbol>
    <symbol id="delete" viewBox="0 0 24 24" xmlns="http://www.w3.org/2000/svg">
      <g id="Icon=delete">
        <path id="Icon color" fill-rule="evenodd" clip-rule="evenodd" d="M20 5.5V4.5C20 4.22386 19.7761 4 19.5 4H15V3C15 2.44772 14.5523 2 14 2H10C9.44772 2 9 2.44772 9 3V4H4.5C4.22386 4 4 4.22386 4 4.5V5.5C4 5.77614 4.22386 6 4.5 6H19.5C19.7761 6 20 5.77614 20 5.5ZM7.87 22C6.81787 22.0026 5.94365 21.1896 5.87 20.14L5 8H19L18.15 20.14C18.0764 21.1896 17.2021 22.0026 16.15 22H7.87Z" />
      </g>
    </symbol>
    <symbol id="done" viewBox="0 0 24 24" xmlns="http://www.w3.org/2000/svg">
      <g id="Icon=done">
        <path id="Icon color" d="M19.85 7.24999L9.24997 17.85C9.15609 17.9447 9.02829 17.9979 8.89497 17.9979C8.76166 17.9979 8.63386 17.9447 8.53997 17.85L3.14997 12.46C3.05532 12.3661 3.00208 12.2383 3.00208 12.105C3.00208 11.9717 3.05532 11.8439 3.14997 11.75L3.84997 11.05C3.94386 10.9553 4.07166 10.9021 4.20497 10.9021C4.33829 10.9021 4.46609 10.9553 4.55997 11.05L8.88997 15.38L18.44 5.82999C18.6378 5.63821 18.9522 5.63821 19.15 5.82999L19.85 6.53999C19.9446 6.63388 19.9979 6.76168 19.9979 6.89499C19.9979 7.02831 19.9446 7.15611 19.85 7.24999Z" />
      </g>
    </symbol>
    <symbol id="clear" viewBox="0 0 24 24" xmlns="http://www.w3.org/2000/svg">
      <g id="Icon=clear">
        <path id="Icon color" d="M17.85 16.44C17.9446 16.5339 17.9979 16.6617 17.9979 16.795C17.9979 16.9283 17.9446 17.0561 17.85 17.15L17.15 17.85C17.0561 17.9446 16.9283 17.9979 16.795 17.9979C16.6617 17.9979 16.5339 17.9446 16.44 17.85L12 13.41L7.55997 17.85C7.46609 17.9446 7.33829 17.9979 7.20497 17.9979C7.07166 17.9979 6.94386 17.9446 6.84997 17.85L6.14997 17.15C6.05532 17.0561 6.00208 16.9283 6.00208 16.795C6.00208 16.6617 6.05532 16.5339 6.14997 16.44L10.59 12L6.14997 7.55997C6.05532 7.46609 6.00208 7.33829 6.00208 7.20497C6.00208 7.07166 6.05532 6.94386 6.14997 6.84997L6.84997 6.14997C6.94386 6.05532 7.07166 6.00208 7.20497 6.00208C7.33829 6.00208 7.46609 6.05532 7.55997 6.14997L12 10.59L16.44 6.14997C16.5339 6.05532 16.6617 6.00208 16.795 6.00208C16.9283 6.00208 17.0561 6.05532 17.15 6.14997L17.85 6.84997C17.9446 6.94386 17.9979 7.07166 17.9979 7.20497C17.9979 7.33829 17.9446 7.46609 17.85 7.55997L13.41 12L17.85 16.44Z" />
      </g>
    </symbol>
    <symbol id="plus" viewBox="0 0 24 24" xmlns="http://www.w3.org/2000/svg">
      <g id="Icon=plus">
        <path id="Icon color" d="M19 11.5V12.5C19 12.7761 18.7761 13 18.5 13H13V18.5C13 18.7761 12.7761 19 12.5 19H11.5C11.2239 19 11 18.7761 11 18.5V13H5.5C5.22386 13 5 12.7761 5 12.5V11.5C5 11.2239 5.22386 11 5.5 11H11V5.5C11 5.22386 11.2239 5 11.5 5H12.5C12.7761 5 13 5.22386 13 5.5V11H18.5C18.7761 11 19 11.2239 19 11.5Z" />
      </g>
    </symbol>
    <symbol id="more_vertical" viewBox="0 0 24 24" xmlns="http://www.w3.org/2000/svg">
      <g id="Icon=more_vertical">
        <path id="Icon color" fill-rule="evenodd" clip-rule="evenodd" d="M10 6C10 4.89543 10.8954 4 12 4C13.1046 4 14 4.89543 14 6C14 7.10457 13.1046 8 12 8C10.8954 8 10 7.10457 10 6ZM12 10C10.8954 10 10 10.8954 10 12C10 13.1046 10.8954 14 12 14C13.1046 14 14 13.1046 14 12C14 10.8954 13.1046 10 12 10ZM10 18C10 16.8954 10.8954 16 12 16C13.1046 16 14 16.8954 14 18C14 19.1046 13.1046 20 12 20C10.8954 20 10 19.1046 10 18Z" />
      </g>
    </symbol>
    <symbol id="info" viewBox="0 0 24 24" xmlns="http://www.w3.org/2000/svg">
      <g id="Icon=info">
        <path id="Icon color" fill-rule="evenodd" clip-rule="evenodd" d="M2 12C2 6.47715 6.47715 2 12 2C14.6522 2 17.1957 3.05357 19.0711 4.92893C20.9464 6.8043 22 9.34784 22 12C22 17.5228 17.5228 22 12 22C6.47715 22 2 17.5228 2 12ZM4 12C4 16.4183 7.58172 20 12 20C14.1217 20 16.1566 19.1571 17.6569 17.6569C19.1571 16.1566 20 14.1217 20 12C20 7.58172 16.4183 4 12 4C7.58172 4 4 7.58172 4 12ZM13 12.5C13 12.2239 12.7761 12 12.5 12H11.5C11.2239 12 11 12.2239 11 12.5V15.5C11 15.7761 11.2239 16 11.5 16H12.5C12.7761 16 13 15.7761 13 15.5V12.5ZM12.5 8C12.7761 8 13 8.22386 13 8.5V9.5C13 9.77614 12.7761 10 12.5 10H11.5C11.2239 10 11 9.77614 11 9.5V8.5C11 8.22386 11.2239 8 11.5 8H12.5Z" />
      </g>
    </symbol>
    <symbol id="checkmark_circle_filled" viewBox="0 0 24 24" xmlns="http://www.w3.org/2000/svg">
      <g id="Icon=checkmark_circle_filled">
        <path id="Icon color" fill-rule="evenodd" clip-rule="evenodd" d="M2 12C2 6.47715 6.47715 2 12 2C14.6522 2 17.1957 3.05357 19.0711 4.92893C20.9464 6.8043 22 9.34784 22 12C22 17.5228 17.5228 22 12 22C6.47715 22 2 17.5228 2 12ZM10.73 15.35L16.35 9.73C16.5341 9.53685 16.5341 9.23315 16.35 9.04L15.82 8.51C15.6256 8.31943 15.3144 8.31943 15.12 8.51L10.38 13.25L8.88 11.76C8.78927 11.6633 8.66259 11.6085 8.53 11.6085C8.39741 11.6085 8.27073 11.6633 8.18 11.76L7.65 12.29C7.55534 12.3839 7.5021 12.5117 7.5021 12.645C7.5021 12.7783 7.55534 12.9061 7.65 13L10.03 15.35C10.1207 15.4467 10.2474 15.5015 10.38 15.5015C10.5126 15.5015 10.6393 15.4467 10.73 15.35Z" />
      </g>
    </symbol>
    <symbol id="checkmark_circle_outlined" viewBox="0 0 24 24" xmlns="http://www.w3.org/2000/svg">
      <g id="Icon=checkmark_circle_outlined">
        <path id="Icon color" fill-rule="evenodd" clip-rule="evenodd" d="M12 2C6.47715 2 2 6.47715 2 12C2 17.5228 6.47715 22 12 22C17.5228 22 22 17.5228 22 12C22 9.34784 20.9464 6.8043 19.0711 4.92893C17.1957 3.05357 14.6522 2 12 2ZM12 20C7.58172 20 4 16.4183 4 12C4 7.58172 7.58172 4 12 4C16.4183 4 20 7.58172 20 12C20 14.1217 19.1571 16.1566 17.6569 17.6569C16.1566 19.1571 14.1217 20 12 20ZM15.12 8.49C15.3144 8.29943 15.6256 8.29943 15.82 8.49L16.32 9.02C16.4147 9.11388 16.4679 9.24168 16.4679 9.375C16.4679 9.50832 16.4147 9.63612 16.32 9.73L10.7 15.35C10.6093 15.4467 10.4826 15.5015 10.35 15.5015C10.2174 15.5015 10.0907 15.4467 10 15.35L7.65 12.98C7.55534 12.8861 7.5021 12.7583 7.5021 12.625C7.5021 12.4917 7.55534 12.3639 7.65 12.27L8.18 11.74C8.27073 11.6433 8.39741 11.5885 8.53 11.5885C8.66259 11.5885 8.78927 11.6433 8.88 11.74L10.38 13.23L15.12 8.49Z" />
      </g>
    </symbol>
    <symbol id="gap" viewBox="0 0 24 24" xmlns="http://www.w3.org/2000/svg">
      <g clip-path="url(#clip0_1233_4714)">
        <path d="M20 9H4C3.448 9 3 8.552 3 8V1C3 0.448 3.448 0 4 0H20C20.552 0 21 0.448 21 1V8C21 8.552 20.552 9 20 9Z" />
        <path d="M20 24H4C3.448 24 3 23.552 3 23V16C3 15.448 3.448 15 4 15H20C20.552 15 21 15.448 21 16V23C21 23.552 20.552 24 20 24Z" />
        <path d="M23 13H1C0.447 13 0 12.552 0 12C0 11.448 0.447 11 1 11H23C23.553 11 24 11.448 24 12C24 12.552 23.553 13 23 13Z" />
      </g>
      <defs>
        <clipPath id="clip0_1233_4714">
        <rect width="24" height="24" fill="white"/>
        </clipPath>
      </defs>
    </symbol>
    <symbol id="info_filled" viewBox="0 0 24 24" xmlns="http://www.w3.org/2000/svg">
      <path fill-rule="evenodd" clip-rule="evenodd" d="M12 2C6.47715 2 2 6.47715 2 12C2 17.5228 6.47715 22 12 22C17.5228 22 22 17.5228 22 12C22 9.34784 20.9464 6.8043 19.0711 4.92893C17.1957 3.05357 14.6522 2 12 2ZM13 15.5C13 15.7761 12.7761 16 12.5 16H11.5C11.2239 16 11 15.7761 11 15.5V12.5C11 12.2239 11.2239 12 11.5 12H12.5C12.7761 12 13 12.2239 13 12.5V15.5ZM12.5 10C12.7761 10 13 9.77614 13 9.5V8.5C13 8.22386 12.7761 8 12.5 8H11.5C11.2239 8 11 8.22386 11 8.5V9.5C11 9.77614 11.2239 10 11.5 10H12.5Z" />
    </symbol>      
  </defs>
</svg>