<svg>
  <defs>
    <symbol id="error_outlined" viewBox="0 0 16 16" xmlns="http://www.w3.org/2000/svg">
      <g id="Icon=error_outlined">
        <path id="Icon color" fill-rule="evenodd" clip-rule="evenodd" d="M1.33337 8.00004C1.33337 4.31814 4.31814 1.33337 8.00004 1.33337C9.76815 1.33337 11.4638 2.03575 12.7141 3.286C13.9643 4.53624 14.6667 6.23193 14.6667 8.00004C14.6667 11.6819 11.6819 14.6667 8.00004 14.6667C4.31814 14.6667 1.33337 11.6819 1.33337 8.00004ZM2.66671 8.00004C2.66671 10.9456 5.05452 13.3334 8.00004 13.3334C9.41453 13.3334 10.7711 12.7715 11.7713 11.7713C12.7715 10.7711 13.3334 9.41453 13.3334 8.00004C13.3334 5.05452 10.9456 2.66671 8.00004 2.66671C5.05452 2.66671 2.66671 5.05452 2.66671 8.00004ZM7.66671 9.33337C7.48261 9.33337 7.33337 9.48261 7.33337 9.66671V10.3334C7.33337 10.5175 7.48261 10.6667 7.66671 10.6667H8.33337C8.51747 10.6667 8.66671 10.5175 8.66671 10.3334V9.66671C8.66671 9.48261 8.51747 9.33337 8.33337 9.33337H7.66671ZM7.54671 5.33337H8.45337C8.54917 5.33268 8.64063 5.37324 8.70443 5.44469C8.76823 5.51615 8.79821 5.6116 8.78671 5.70671L8.52004 7.85337C8.50987 7.93753 8.43814 8.00065 8.35337 8.00004H7.64671C7.56194 8.00065 7.49021 7.93753 7.48004 7.85337L7.21337 5.70671C7.20188 5.6116 7.23185 5.51615 7.29565 5.44469C7.35945 5.37324 7.45091 5.33268 7.54671 5.33337Z" />
      </g>
    </symbol>
    <symbol id="notifications_on" viewBox="0 0 16 16" xmlns="http://www.w3.org/2000/svg">
      <g id="Icon=notifications_on">
        <path id="Icon color" fill-rule="evenodd" clip-rule="evenodd" d="M12 8.50671C12.0005 9.03696 12.2115 9.54533 12.5867 9.92004L13.14 10.4734C13.2632 10.5975 13.3326 10.7651 13.3333 10.94V11.3334C13.3333 11.7016 13.0349 12 12.6667 12H3.33335C2.96516 12 2.66668 11.7016 2.66668 11.3334V10.94C2.66742 10.7651 2.73685 10.5975 2.86001 10.4734L3.41335 9.92004C3.78853 9.54533 3.99955 9.03696 4.00001 8.50671V6.66671C4.00001 5.80123 4.28073 4.95909 4.80001 4.26671L5.40001 3.46671C5.77772 2.9631 6.3705 2.66671 7.00001 2.66671H7.33335V1.66671C7.33335 1.48261 7.48259 1.33337 7.66668 1.33337H8.33335C8.51744 1.33337 8.66668 1.48261 8.66668 1.66671V2.66671H9.00001C9.62953 2.66671 10.2223 2.9631 10.6 3.46671L11.2 4.26671C11.7193 4.95909 12 5.80123 12 6.66671V8.50671ZM8.00001 14.6667C8.73639 14.6667 9.33335 14.0698 9.33335 13.3334H6.66668C6.66668 14.0698 7.26363 14.6667 8.00001 14.6667ZM3.72668 3.47337C3.80621 3.36987 3.78844 3.22179 3.68668 3.14004L3.02001 2.62004C2.96427 2.57369 2.89206 2.55202 2.82001 2.56004C2.7569 2.57412 2.70183 2.61243 2.66668 2.66671C1.87204 3.72401 1.40811 4.99286 1.33335 6.31337C1.32665 6.40532 1.3608 6.49555 1.42668 6.56004C1.48773 6.6283 1.5751 6.66713 1.66668 6.66671H2.33335C2.51101 6.66353 2.65626 6.52409 2.66668 6.34671C2.73607 5.30686 3.10413 4.30915 3.72668 3.47337ZM13.1533 2.56004C13.2259 2.568 13.2915 2.60688 13.3333 2.66671C14.1252 3.72554 14.5888 4.99351 14.6667 6.31337C14.6654 6.40522 14.6297 6.49325 14.5667 6.56004C14.5046 6.62694 14.4179 6.66549 14.3267 6.66671H13.66C13.4836 6.66332 13.3404 6.52302 13.3333 6.34671C13.2542 5.3034 12.8745 4.30536 12.24 3.47337C12.1605 3.36987 12.1783 3.22179 12.28 3.14004L12.9467 2.62004C13.0055 2.57458 13.0793 2.55314 13.1533 2.56004Z" />
      </g>
    </symbol>
    <symbol id="notifications_on_outlined" viewBox="0 0 16 16" xmlns="http://www.w3.org/2000/svg">
      <g id="Icon=notifications_on_outlined">
        <path id="Icon color" fill-rule="evenodd" clip-rule="evenodd" d="M12.5867 9.92004C12.2115 9.54533 12.0005 9.03696 12 8.50671V6.66671C12 5.80123 11.7193 4.95909 11.2 4.26671L10.6 3.46671C10.2223 2.9631 9.62953 2.66671 9.00001 2.66671H8.66668V1.66671C8.66668 1.48261 8.51744 1.33337 8.33335 1.33337H7.66668C7.48259 1.33337 7.33335 1.48261 7.33335 1.66671V2.66671H7.00001C6.3705 2.66671 5.77772 2.9631 5.40001 3.46671L4.80001 4.26671C4.28073 4.95909 4.00001 5.80123 4.00001 6.66671V8.50671C3.99955 9.03696 3.78853 9.54533 3.41335 9.92004L2.86001 10.4734C2.73685 10.5975 2.66742 10.7651 2.66668 10.94V11.3334C2.66668 11.7016 2.96516 12 3.33335 12H12.6667C13.0349 12 13.3333 11.7016 13.3333 11.3334V10.94C13.3326 10.7651 13.2632 10.5975 13.14 10.4734L12.5867 9.92004ZM10.6667 10.6667H5.33335V6.66671C5.33335 6.08972 5.52049 5.5283 5.86668 5.06671L6.46668 4.26671C6.59258 4.09884 6.79018 4.00004 7.00001 4.00004H9.00001C9.20985 4.00004 9.40744 4.09884 9.53335 4.26671L10.1333 5.06671C10.4795 5.5283 10.6667 6.08972 10.6667 6.66671V10.6667ZM9.33335 13.3334C9.33335 14.0698 8.73639 14.6667 8.00001 14.6667C7.26363 14.6667 6.66668 14.0698 6.66668 13.3334H9.33335ZM3.72668 3.47337C3.80621 3.36987 3.78844 3.22179 3.68668 3.14004L3.02001 2.62004C2.96427 2.57369 2.89206 2.55202 2.82001 2.56004C2.7569 2.57412 2.70183 2.61243 2.66668 2.66671C1.87204 3.72401 1.40811 4.99286 1.33335 6.31337C1.32665 6.40532 1.3608 6.49555 1.42668 6.56004C1.48773 6.6283 1.5751 6.66713 1.66668 6.66671H2.33335C2.51101 6.66353 2.65626 6.52409 2.66668 6.34671C2.73607 5.30686 3.10413 4.30915 3.72668 3.47337ZM13.1533 2.56004C13.2259 2.568 13.2915 2.60688 13.3333 2.66671C14.1252 3.72554 14.5888 4.99351 14.6667 6.31337C14.6654 6.40522 14.6297 6.49325 14.5667 6.56004C14.5046 6.62694 14.4179 6.66549 14.3267 6.66671H13.66C13.4836 6.66332 13.3404 6.52302 13.3333 6.34671C13.2542 5.3034 12.8745 4.30536 12.24 3.47337C12.1605 3.36987 12.1783 3.22179 12.28 3.14004L12.9467 2.62004C13.0055 2.57458 13.0793 2.55314 13.1533 2.56004Z" />
      </g>
    </symbol>
    <symbol id="notifications_outlined" viewBox="0 0 16 16" xmlns="http://www.w3.org/2000/svg">
      <g id="Icon=notifications_outlined">
        <path id="Icon color" fill-rule="evenodd" clip-rule="evenodd" d="M13.14 10.4734L12.5866 9.92004C12.2114 9.54533 12.0004 9.03696 12 8.50671V6.66671C12 5.80123 11.7192 4.95909 11.2 4.26671L10.6 3.46671C10.2223 2.9631 9.62947 2.66671 8.99996 2.66671H8.66663V1.66671C8.66663 1.48261 8.51739 1.33337 8.33329 1.33337H7.66663C7.48253 1.33337 7.33329 1.48261 7.33329 1.66671V2.66671H6.99996C6.37044 2.66671 5.77767 2.9631 5.39996 3.46671L4.79996 4.26671C4.28067 4.95909 3.99996 5.80123 3.99996 6.66671V8.50671C3.99949 9.03696 3.78847 9.54533 3.41329 9.92004L2.85996 10.4734C2.7368 10.5975 2.66736 10.7651 2.66663 10.94V11.3334C2.66663 11.7016 2.9651 12 3.33329 12H12.6666C13.0348 12 13.3333 11.7016 13.3333 11.3334V10.94C13.3326 10.7651 13.2631 10.5975 13.14 10.4734ZM10.6666 10.6667H5.33329V6.66671C5.33329 6.08972 5.52043 5.5283 5.86663 5.06671L6.46663 4.26671C6.59253 4.09884 6.79012 4.00004 6.99996 4.00004H8.99996C9.2098 4.00004 9.40739 4.09884 9.53329 4.26671L10.1333 5.06671C10.4795 5.5283 10.6666 6.08972 10.6666 6.66671V10.6667ZM7.99996 14.6667C8.73634 14.6667 9.33329 14.0698 9.33329 13.3334H6.66663C6.66663 14.0698 7.26358 14.6667 7.99996 14.6667Z" />
      </g>
    </symbol>
    <symbol id="message_failed" viewBox="0 0 16 16" xmlns="http://www.w3.org/2000/svg">
      <g id="Icon=message_failed">
        <path id="Icon color" fill-rule="evenodd" clip-rule="evenodd" d="M12 1.33337H4.00004C2.52728 1.33337 1.33337 2.52728 1.33337 4.00004V14.3334C1.33337 14.5175 1.48261 14.6667 1.66671 14.6667C1.75479 14.6662 1.83893 14.6301 1.90004 14.5667L3.90004 12.5667C4.28293 12.1939 4.79908 11.9899 5.33337 12H12C13.4728 12 14.6667 10.8061 14.6667 9.33337V4.00004C14.6667 2.52728 13.4728 1.33337 12 1.33337ZM8.66671 9.00004C8.66671 9.18414 8.51747 9.33337 8.33337 9.33337H7.66671C7.48261 9.33337 7.33337 9.18414 7.33337 9.00004V8.33337C7.33337 8.14928 7.48261 8.00004 7.66671 8.00004H8.33337C8.51747 8.00004 8.66671 8.14928 8.66671 8.33337V9.00004ZM8.35337 6.66671C8.43814 6.66732 8.50987 6.6042 8.52004 6.52004L8.78671 4.37337C8.79821 4.27827 8.76823 4.18282 8.70443 4.11136C8.64063 4.0399 8.54917 3.99935 8.45337 4.00004H7.54671C7.45091 3.99935 7.35945 4.0399 7.29565 4.11136C7.23185 4.18282 7.20188 4.27827 7.21337 4.37337L7.48004 6.52004C7.49021 6.6042 7.56194 6.66732 7.64671 6.66671H8.35337Z" />
      </g>
    </symbol>
    <symbol id="message_failed_outlined" viewBox="0 0 16 16" xmlns="http://www.w3.org/2000/svg">
      <g id="Icon=message_failed_outlined">
        <path id="Icon color" fill-rule="evenodd" clip-rule="evenodd" d="M4.00004 1.33337H12C13.4728 1.33337 14.6667 2.52728 14.6667 4.00004V9.33337C14.6667 10.8061 13.4728 12 12 12H5.33337C4.79908 11.9899 4.28293 12.1939 3.90004 12.5667L1.90004 14.5667C1.83893 14.6301 1.75479 14.6662 1.66671 14.6667C1.48261 14.6667 1.33337 14.5175 1.33337 14.3334V4.00004C1.33337 2.52728 2.52728 1.33337 4.00004 1.33337ZM12 10.6667C12.7364 10.6667 13.3334 10.0698 13.3334 9.33337V4.00004C13.3334 3.26366 12.7364 2.66671 12 2.66671H4.00004C3.26366 2.66671 2.66671 3.26366 2.66671 4.00004V11.92L2.97337 11.64C3.59971 11.0153 4.44871 10.6651 5.33337 10.6667H12ZM8.33337 8.00004H7.66671C7.48261 8.00004 7.33337 8.14928 7.33337 8.33337V9.00004C7.33337 9.18414 7.48261 9.33337 7.66671 9.33337H8.33337C8.51747 9.33337 8.66671 9.18414 8.66671 9.00004V8.33337C8.66671 8.14928 8.51747 8.00004 8.33337 8.00004ZM8.37337 6.66671H7.66671H7.64671C7.56194 6.66732 7.49021 6.6042 7.48004 6.52004L7.21337 4.37337C7.20188 4.27827 7.23185 4.18282 7.29565 4.11136C7.35945 4.0399 7.45091 3.99935 7.54671 4.00004H8.47337C8.56917 3.99935 8.66063 4.0399 8.72443 4.11136C8.78823 4.18282 8.81821 4.27827 8.80671 4.37337L8.54004 6.52004C8.52987 6.6042 8.45814 6.66732 8.37337 6.66671Z" />
      </g>
    </symbol>
    <symbol id="warning" viewBox="0 0 16 16" xmlns="http://www.w3.org/2000/svg">
      <g id="Icon=warning">
        <path id="Icon color" fill-rule="evenodd" clip-rule="evenodd" d="M15.2701 13.0867L8.54186 1.58004C8.45064 1.42751 8.28617 1.33391 8.10842 1.33337H7.90837C7.73063 1.33391 7.56615 1.42751 7.47494 1.58004L0.733342 13.0867C0.646747 13.2445 0.646747 13.4356 0.733342 13.5934L0.826698 13.7467C0.913112 13.9049 1.07988 14.0023 1.26013 14H14.7433C14.9236 14.0023 15.0903 13.9049 15.1768 13.7467L15.2701 13.5934C15.3567 13.4356 15.3567 13.2445 15.2701 13.0867ZM8.66855 11C8.66855 11.1841 8.51928 11.3334 8.33514 11.3334H7.66832C7.48418 11.3334 7.33491 11.1841 7.33491 11V10.3334C7.33491 10.1493 7.48418 10 7.66832 10H8.33514C8.51928 10 8.66855 10.1493 8.66855 10.3334V11ZM8.35515 8.66671C8.43994 8.66732 8.51168 8.6042 8.52185 8.52004L8.78858 6.37337C8.80008 6.27827 8.7701 6.18282 8.70628 6.11136C8.64247 6.0399 8.55099 5.99935 8.45517 6.00004H7.54829C7.45247 5.99935 7.36099 6.0399 7.29717 6.11136C7.23336 6.18282 7.20338 6.27827 7.21488 6.37337L7.48161 8.52004C7.49178 8.6042 7.56352 8.66732 7.64831 8.66671H8.35515Z" />
      </g>
    </symbol>
    <symbol id="warning_outlined" viewBox="0 0 16 16" xmlns="http://www.w3.org/2000/svg">
      <g id="Icon=warning_outlined">
        <path id="Icon color" fill-rule="evenodd" clip-rule="evenodd" d="M8.54186 1.58004L15.2701 13.0867C15.3567 13.2445 15.3567 13.4356 15.2701 13.5934L15.1768 13.7467C15.0903 13.9049 14.9236 14.0023 14.7433 14H1.26013C1.07988 14.0023 0.913112 13.9049 0.826698 13.7467L0.733342 13.5934C0.646747 13.4356 0.646747 13.2445 0.733342 13.0867L7.47494 1.58004C7.56615 1.42751 7.73063 1.33391 7.90837 1.33337H8.10842C8.28617 1.33391 8.45064 1.42751 8.54186 1.58004ZM8.00173 3.33337L2.5271 12.6667H13.4697L8.00173 3.33337ZM8.33514 10H7.66832C7.48418 10 7.33491 10.1493 7.33491 10.3334V11C7.33491 11.1841 7.48418 11.3334 7.66832 11.3334H8.33514C8.51928 11.3334 8.66855 11.1841 8.66855 11V10.3334C8.66855 10.1493 8.51928 10 8.33514 10ZM7.48161 8.52004L7.21488 6.37337C7.20338 6.27827 7.23336 6.18282 7.29717 6.11136C7.36099 6.0399 7.45247 5.99935 7.54829 6.00004H8.45517C8.55099 5.99935 8.64247 6.0399 8.70628 6.11136C8.7701 6.18282 8.80008 6.27827 8.78858 6.37337L8.52185 8.52004C8.51168 8.6042 8.43994 8.66732 8.35515 8.66671H7.64831C7.56352 8.66732 7.49178 8.6042 7.48161 8.52004Z" />
      </g>
    </symbol>
    <symbol id="drag" viewBox="0 0 16 16" xmlns="http://www.w3.org/2000/svg">
      <g id="Icon=drag">
        <path id="Icon color" fill-rule="evenodd" clip-rule="evenodd" d="M5.99996 5.33329C6.73634 5.33329 7.33329 4.73634 7.33329 3.99996C7.33329 3.26358 6.73634 2.66663 5.99996 2.66663C5.26358 2.66663 4.66663 3.26358 4.66663 3.99996C4.66663 4.73634 5.26358 5.33329 5.99996 5.33329ZM4.66663 7.99996C4.66663 7.26358 5.26358 6.66663 5.99996 6.66663C6.73634 6.66663 7.33329 7.26358 7.33329 7.99996C7.33329 8.73634 6.73634 9.33329 5.99996 9.33329C5.26358 9.33329 4.66663 8.73634 4.66663 7.99996ZM5.99996 10.6666C5.26358 10.6666 4.66663 11.2636 4.66663 12C4.66663 12.7363 5.26358 13.3333 5.99996 13.3333C6.73634 13.3333 7.33329 12.7363 7.33329 12C7.33329 11.2636 6.73634 10.6666 5.99996 10.6666ZM11.3333 3.99996C11.3333 4.73634 10.7363 5.33329 9.99996 5.33329C9.26358 5.33329 8.66663 4.73634 8.66663 3.99996C8.66663 3.26358 9.26358 2.66663 9.99996 2.66663C10.7363 2.66663 11.3333 3.26358 11.3333 3.99996ZM9.99996 6.66663C9.26358 6.66663 8.66663 7.26358 8.66663 7.99996C8.66663 8.73634 9.26358 9.33329 9.99996 9.33329C10.7363 9.33329 11.3333 8.73634 11.3333 7.99996C11.3333 7.26358 10.7363 6.66663 9.99996 6.66663ZM8.66663 12C8.66663 11.2636 9.26358 10.6666 9.99996 10.6666C10.7363 10.6666 11.3333 11.2636 11.3333 12C11.3333 12.7363 10.7363 13.3333 9.99996 13.3333C9.26358 13.3333 8.66663 12.7363 8.66663 12Z" />
      </g>
    </symbol>
    <symbol id="delete" viewBox="0 0 16 16" xmlns="http://www.w3.org/2000/svg">
      <g id="Icon=delete">
        <path id="Icon color" fill-rule="evenodd" clip-rule="evenodd" d="M13.3333 3.66671V3.00004C13.3333 2.81595 13.1841 2.66671 13 2.66671H9.99996V2.00004C9.99996 1.63185 9.70148 1.33337 9.33329 1.33337H6.66663C6.29844 1.33337 5.99996 1.63185 5.99996 2.00004V2.66671H2.99996C2.81586 2.66671 2.66663 2.81595 2.66663 3.00004V3.66671C2.66663 3.8508 2.81586 4.00004 2.99996 4.00004H13C13.1841 4.00004 13.3333 3.8508 13.3333 3.66671ZM5.24663 14.6667C4.54521 14.6684 3.96239 14.1264 3.91329 13.4267L3.33329 5.33337H12.6666L12.1 13.4267C12.0509 14.1264 11.468 14.6684 10.7666 14.6667H5.24663Z" />
      </g>
    </symbol>
    <symbol id="done" viewBox="0 0 16 16" xmlns="http://www.w3.org/2000/svg">
      <g id="Icon=done">
        <path id="Icon color" d="M13.2333 4.83333L6.16661 11.9C6.10402 11.9631 6.01882 11.9986 5.92994 11.9986C5.84106 11.9986 5.75586 11.9631 5.69328 11.9L2.09994 8.30666C2.03684 8.24407 2.00134 8.15888 2.00134 8.07C2.00134 7.98112 2.03684 7.89592 2.09994 7.83333L2.56661 7.36666C2.6292 7.30356 2.7144 7.26806 2.80328 7.26806C2.89215 7.26806 2.97735 7.30356 3.03994 7.36666L5.92661 10.2533L12.2933 3.88666C12.4252 3.75881 12.6347 3.75881 12.7666 3.88666L13.2333 4.36C13.2964 4.42259 13.3319 4.50778 13.3319 4.59666C13.3319 4.68554 13.2964 4.77074 13.2333 4.83333Z" />
      </g>
    </symbol>
    <symbol id="plus" viewBox="0 0 16 16" xmlns="http://www.w3.org/2000/svg">
      <path d="M12.6667 7.66671V8.33337C12.6667 8.51747 12.5175 8.66671 12.3334 8.66671H8.66671V12.3334C8.66671 12.5175 8.51747 12.6667 8.33337 12.6667H7.66671C7.48261 12.6667 7.33337 12.5175 7.33337 12.3334V8.66671H3.66671C3.48261 8.66671 3.33337 8.51747 3.33337 8.33337V7.66671C3.33337 7.48261 3.48261 7.33337 3.66671 7.33337H7.33337V3.66671C7.33337 3.48261 7.48261 3.33337 7.66671 3.33337H8.33337C8.51747 3.33337 8.66671 3.48261 8.66671 3.66671V7.33337H12.3334C12.5175 7.33337 12.6667 7.48261 12.6667 7.66671Z" />
    </symbol>
    <symbol id="info" viewBox="0 0 16 16" xmlns="http://www.w3.org/2000/svg">
      <g id="Icon=info">
        <path id="Icon color" fill-rule="evenodd" clip-rule="evenodd" d="M1.33337 8.00004C1.33337 4.31814 4.31814 1.33337 8.00004 1.33337C9.76815 1.33337 11.4638 2.03575 12.7141 3.286C13.9643 4.53624 14.6667 6.23193 14.6667 8.00004C14.6667 11.6819 11.6819 14.6667 8.00004 14.6667C4.31814 14.6667 1.33337 11.6819 1.33337 8.00004ZM2.66671 8.00004C2.66671 10.9456 5.05452 13.3334 8.00004 13.3334C9.41453 13.3334 10.7711 12.7715 11.7713 11.7713C12.7715 10.7711 13.3334 9.41453 13.3334 8.00004C13.3334 5.05452 10.9456 2.66671 8.00004 2.66671C5.05452 2.66671 2.66671 5.05452 2.66671 8.00004ZM8.66671 8.33337C8.66671 8.14928 8.51747 8.00004 8.33337 8.00004H7.66671C7.48261 8.00004 7.33337 8.14928 7.33337 8.33337V10.3334C7.33337 10.5175 7.48261 10.6667 7.66671 10.6667H8.33337C8.51747 10.6667 8.66671 10.5175 8.66671 10.3334V8.33337ZM8.33337 5.33337C8.51747 5.33337 8.66671 5.48261 8.66671 5.66671V6.33337C8.66671 6.51747 8.51747 6.66671 8.33337 6.66671H7.66671C7.48261 6.66671 7.33337 6.51747 7.33337 6.33337V5.66671C7.33337 5.48261 7.48261 5.33337 7.66671 5.33337H8.33337Z" />
      </g>
    </symbol>
    <symbol id="info_filled" viewBox="0 0 16 16" xmlns="http://www.w3.org/2000/svg">
      <path fill-rule="evenodd" clip-rule="evenodd" d="M7.99998 1.33337C4.31808 1.33337 1.33331 4.31814 1.33331 8.00004C1.33331 11.6819 4.31808 14.6667 7.99998 14.6667C11.6819 14.6667 14.6666 11.6819 14.6666 8.00004C14.6666 6.23193 13.9643 4.53624 12.714 3.286C11.4638 2.03575 9.76809 1.33337 7.99998 1.33337ZM8.66665 10.3334C8.66665 10.5175 8.51741 10.6667 8.33331 10.6667H7.66665C7.48255 10.6667 7.33331 10.5175 7.33331 10.3334V8.33337C7.33331 8.14928 7.48255 8.00004 7.66665 8.00004H8.33331C8.51741 8.00004 8.66665 8.14928 8.66665 8.33337V10.3334ZM8.33331 6.66671C8.51741 6.66671 8.66665 6.51747 8.66665 6.33337V5.66671C8.66665 5.48261 8.51741 5.33337 8.33331 5.33337H7.66665C7.48255 5.33337 7.33331 5.48261 7.33331 5.66671V6.33337C7.33331 6.51747 7.48255 6.66671 7.66665 6.66671H8.33331Z" />
    </symbol>      
  </defs>
</svg>