<svg>
  <defs>
    <symbol id="caret_right" viewBox="0 0 48 48" xmlns="http://www.w3.org/2000/svg">
      <g id="Icon=caret_right">
        <path id="Icon color" d="M22.1201 32.2801C21.9323 32.4694 21.6767 32.5759 21.4101 32.5759C21.1435 32.5759 20.8879 32.4694 20.7001 32.2801L20.3001 31.8801C20.1048 31.692 19.9962 31.4313 20.0001 31.1601V16.8401C19.9962 16.5689 20.1048 16.3083 20.3001 16.1201L20.7001 15.7201C20.8879 15.5308 21.1435 15.4243 21.4101 15.4243C21.6767 15.4243 21.9323 15.5308 22.1201 15.7201L29.7001 23.3001C29.8935 23.4816 30.0031 23.7349 30.0031 24.0001C30.0031 24.2653 29.8935 24.5186 29.7001 24.7001L22.1201 32.2801Z" />
      </g>
    </symbol>
    <symbol id="caret_up" viewBox="0 0 48 48" xmlns="http://www.w3.org/2000/svg">
      <g id="Icon=caret_up">
        <path 
          id="Icon color"
          d="M32.2801 25.8801C32.4694 26.0679 32.5759 26.3235 32.5759 26.5901C32.5759 26.8567 32.4694 27.1123 32.2801 27.3001L31.8801 27.7001C31.692 27.8954 31.4313 28.004 31.1601 28.0001H16.8401C16.5689 28.004 16.3083 27.8954 16.1201 27.7001L15.7201 27.3001C15.5308 27.1123 15.4243 26.8567 15.4243 26.5901C15.4243 26.3235 15.5308 26.0679 15.7201 25.8801L23.3001 18.3001C23.4816 18.1068 23.7349 17.9971 24.0001 17.9971C24.2653 17.9971 24.5186 18.1068 24.7001 18.3001L32.2801 25.8801Z"
         />
      </g>
    </symbol>
    <symbol id="caret_down" viewBox="0 0 48 48" xmlns="http://www.w3.org/2000/svg">
      <g id="Icon=caret_down">
        <path id="Icon color" d="M15.7201 22.1201C15.5308 21.9323 15.4243 21.6767 15.4243 21.4101C15.4243 21.1435 15.5308 20.8879 15.7201 20.7001L16.1201 20.3001C16.3083 20.1048 16.5689 19.9962 16.8401 20.0001H31.1601C31.4313 19.9962 31.692 20.1048 31.8801 20.3001L32.2801 20.7001C32.4694 20.8879 32.5759 21.1435 32.5759 21.4101C32.5759 21.6767 32.4694 21.9323 32.2801 22.1201L24.7001 29.7001C24.5186 29.8935 24.2653 30.0031 24.0001 30.0031C23.7349 30.0031 23.4816 29.8935 23.3001 29.7001L15.7201 22.1201Z" />
      </g>
    </symbol>
    <symbol id="caret_left" viewBox="0 0 48 48" xmlns="http://www.w3.org/2000/svg">
      <g id="Icon=caret_left">
        <path id="Icon color" d="M25.8801 15.7201C26.0679 15.5308 26.3235 15.4243 26.5901 15.4243C26.8567 15.4243 27.1123 15.5308 27.3001 15.7201L27.7001 16.1201C27.8954 16.3083 28.004 16.5689 28.0001 16.8401V31.1601C28.004 31.4313 27.8954 31.692 27.7001 31.8801L27.3001 32.2801C27.1123 32.4694 26.8567 32.5759 26.5901 32.5759C26.3235 32.5759 26.0679 32.4694 25.8801 32.2801L18.3001 24.7001C18.1068 24.5186 17.9971 24.2653 17.9971 24.0001C17.9971 23.7349 18.1068 23.4816 18.3001 23.3001L25.8801 15.7201Z" />
      </g>
    </symbol>      
    <symbol id="chevron_down" viewBox="0 0 48 48" xmlns="http://www.w3.org/2000/svg">
      <g id="Icon=chevron_down">
        <path id="Icon color" d="M25.4399 31.5601C25.1589 31.8415 24.7776 31.9997 24.3799 32.0001H23.6199C23.2231 31.9955 22.8434 31.8379 22.5599 31.5601L12.2999 21.2801C12.1106 21.0923 12.0042 20.8367 12.0042 20.5701C12.0042 20.3034 12.1106 20.0479 12.2999 19.8601L13.7199 18.4401C13.9043 18.252 14.1566 18.1459 14.4199 18.1459C14.6833 18.1459 14.9356 18.252 15.1199 18.4401L23.9999 27.3401L32.8799 18.4401C33.0677 18.2508 33.3233 18.1443 33.5899 18.1443C33.8566 18.1443 34.1122 18.2508 34.2999 18.4401L35.6999 19.8601C35.8893 20.0479 35.9957 20.3034 35.9957 20.5701C35.9957 20.8367 35.8893 21.0923 35.6999 21.2801L25.4399 31.5601Z" />
      </g>
    </symbol>
    <symbol id="chevron_left" viewBox="0 0 48 48" xmlns="http://www.w3.org/2000/svg">
      <g id="Icon=chevron_left">
        <path id="Icon color" d="M16.44 25.4399C16.1586 25.1589 16.0004 24.7776 16 24.3799V23.6199C16.0046 23.2231 16.1622 22.8434 16.44 22.5599L26.72 12.2999C26.9078 12.1106 27.1634 12.0042 27.43 12.0042C27.6966 12.0042 27.9522 12.1106 28.14 12.2999L29.56 13.7199C29.7481 13.9043 29.8541 14.1566 29.8541 14.4199C29.8541 14.6833 29.7481 14.9356 29.56 15.1199L20.66 23.9999L29.56 32.8799C29.7493 33.0677 29.8558 33.3233 29.8558 33.5899C29.8558 33.8566 29.7493 34.1122 29.56 34.2999L28.14 35.6999C27.9522 35.8893 27.6966 35.9957 27.43 35.9957C27.1634 35.9957 26.9078 35.8893 26.72 35.6999L16.44 25.4399Z" />
      </g>
    </symbol>
    <symbol id="chevron_right" viewBox="0 0 48 48" xmlns="http://www.w3.org/2000/svg">
      <g id="Icon=chevron_right">
        <path id="Icon color" d="M31.5601 22.5599C31.8415 22.841 31.9997 23.2223 32.0001 23.6199V24.3799C31.9955 24.7768 31.8379 25.1565 31.5601 25.4399L21.2801 35.6999C21.0923 35.8893 20.8367 35.9957 20.5701 35.9957C20.3034 35.9957 20.0479 35.8893 19.8601 35.6999L18.4401 34.2799C18.252 34.0956 18.1459 33.8433 18.1459 33.5799C18.1459 33.3166 18.252 33.0643 18.4401 32.8799L27.3401 23.9999L18.4401 15.1199C18.2508 14.9322 18.1443 14.6766 18.1443 14.4099C18.1443 14.1433 18.2508 13.8877 18.4401 13.6999L19.8601 12.2999C20.0479 12.1106 20.3034 12.0042 20.5701 12.0042C20.8367 12.0042 21.0923 12.1106 21.2801 12.2999L31.5601 22.5599Z" />
      </g>
    </symbol>
    <symbol id="chevron_up" viewBox="0 0 48 48" xmlns="http://www.w3.org/2000/svg">
      <g id="Icon=chevron_up">
        <path id="Icon color" d="M22.5599 16.44C22.841 16.1586 23.2223 16.0004 23.6199 16H24.3799C24.7768 16.0046 25.1565 16.1622 25.4399 16.44L35.6999 26.72C35.8893 26.9078 35.9957 27.1634 35.9957 27.43C35.9957 27.6966 35.8893 27.9522 35.6999 28.14L34.2799 29.56C34.0956 29.7481 33.8433 29.8541 33.5799 29.8541C33.3166 29.8541 33.0643 29.7481 32.8799 29.56L23.9999 20.66L15.1199 29.56C14.9322 29.7493 14.6766 29.8558 14.4099 29.8558C14.1433 29.8558 13.8877 29.7493 13.6999 29.56L12.2999 28.14C12.1106 27.9522 12.0042 27.6966 12.0042 27.43C12.0042 27.1634 12.1106 26.9078 12.2999 26.72L22.5599 16.44Z" />
      </g>
    </symbol>
    <symbol id="error_outlined" viewBox="0 0 48 48" xmlns="http://www.w3.org/2000/svg">
      <g id="Icon=error_outlined">
        <path id="Icon color" fill-rule="evenodd" clip-rule="evenodd" d="M4 24C4 12.9543 12.9543 4 24 4C29.3043 4 34.3914 6.10714 38.1421 9.85786C41.8929 13.6086 44 18.6957 44 24C44 35.0457 35.0457 44 24 44C12.9543 44 4 35.0457 4 24ZM8 24C8 32.8366 15.1634 40 24 40C28.2435 40 32.3131 38.3143 35.3137 35.3137C38.3143 32.3131 40 28.2435 40 24C40 15.1634 32.8366 8 24 8C15.1634 8 8 15.1634 8 24ZM23 28C22.4477 28 22 28.4477 22 29V31C22 31.5523 22.4477 32 23 32H25C25.5523 32 26 31.5523 26 31V29C26 28.4477 25.5523 28 25 28H23ZM22.64 16H25.36C25.6474 15.9979 25.9218 16.1196 26.1132 16.334C26.3046 16.5483 26.3945 16.8347 26.36 17.12L25.56 23.56C25.5295 23.8125 25.3143 24.0018 25.06 24H22.94C22.6857 24.0018 22.4705 23.8125 22.44 23.56L21.64 17.12C21.6055 16.8347 21.6954 16.5483 21.8868 16.334C22.0782 16.1196 22.3526 15.9979 22.64 16Z" />
      </g>
    </symbol>
    <symbol id="notifications_on" viewBox="0 0 48 48" xmlns="http://www.w3.org/2000/svg">
      <g id="Icon=notifications_on">
        <path id="Icon color" fill-rule="evenodd" clip-rule="evenodd" d="M36 25.52C36.0014 27.1108 36.6345 28.6359 37.76 29.76L39.42 31.42C39.7895 31.7925 39.9978 32.2953 40 32.82V34C40 35.1046 39.1046 36 38 36H10C8.89547 36 8.00004 35.1046 8.00004 34V32.82C8.00225 32.2953 8.21055 31.7925 8.58004 31.42L10.24 29.76C11.3656 28.6359 11.9986 27.1108 12 25.52V20C12 17.4036 12.8422 14.8772 14.4 12.8L16.2 10.4C17.3332 8.88916 19.1115 8 21 8H22V5C22 4.44772 22.4478 4 23 4H25C25.5523 4 26 4.44772 26 5V8H27C28.8886 8 30.6669 8.88916 31.8 10.4L33.6 12.8C35.1579 14.8772 36 17.4036 36 20V25.52ZM24 44C26.2092 44 28 42.2091 28 40H20C20 42.2091 21.7909 44 24 44ZM11.18 10.42C11.4186 10.1095 11.3653 9.66524 11.06 9.42L9.06004 7.86C8.89282 7.72094 8.67619 7.65595 8.46004 7.68C8.27069 7.72224 8.1055 7.83716 8.00004 8C5.61612 11.1719 4.22433 14.9785 4.00004 18.94C3.97996 19.2158 4.08239 19.4865 4.28004 19.68C4.4632 19.8848 4.72531 20.0013 5.00004 20H7.00004C7.53302 19.9905 7.96877 19.5721 8.00004 19.04C8.2082 15.9205 9.31239 12.9273 11.18 10.42ZM39.46 7.68C39.6777 7.70388 39.8746 7.82051 40 8C42.3755 11.1765 43.7664 14.9804 44 18.94C43.9963 19.2155 43.8892 19.4796 43.7 19.68C43.5139 19.8807 43.2537 19.9964 42.98 20H40.98C40.4508 19.9898 40.0211 19.5689 40 19.04C39.7627 15.9101 38.6235 12.916 36.72 10.42C36.4815 10.1095 36.5348 9.66524 36.84 9.42L38.84 7.86C39.0164 7.72362 39.238 7.65929 39.46 7.68Z" />
      </g>
    </symbol>
    <symbol id="notifications_on_outlined" viewBox="0 0 48 48" xmlns="http://www.w3.org/2000/svg">
      <g id="Icon=notifications_on_outlined">
        <path id="Icon color" fill-rule="evenodd" clip-rule="evenodd" d="M37.76 29.76C36.6345 28.6359 36.0014 27.1108 36 25.52V20C36 17.4036 35.1579 14.8772 33.6 12.8L31.8 10.4C30.6669 8.88916 28.8886 8 27 8H26V5C26 4.44772 25.5523 4 25 4H23C22.4478 4 22 4.44772 22 5V8H21C19.1115 8 17.3332 8.88916 16.2 10.4L14.4 12.8C12.8422 14.8772 12 17.4036 12 20V25.52C11.9986 27.1108 11.3656 28.6359 10.24 29.76L8.58004 31.42C8.21055 31.7925 8.00225 32.2953 8.00004 32.82V34C8.00004 35.1046 8.89547 36 10 36H38C39.1046 36 40 35.1046 40 34V32.82C39.9978 32.2953 39.7895 31.7925 39.42 31.42L37.76 29.76ZM32 32H16V20C16 18.269 16.5615 16.5848 17.6 15.2L19.4 12.8C19.7778 12.2964 20.3705 12 21 12H27C27.6296 12 28.2223 12.2964 28.6 12.8L30.4 15.2C31.4386 16.5848 32 18.269 32 20V32ZM28 40C28 42.2091 26.2092 44 24 44C21.7909 44 20 42.2091 20 40H28ZM11.18 10.42C11.4186 10.1095 11.3653 9.66524 11.06 9.42L9.06004 7.86C8.89282 7.72094 8.67619 7.65595 8.46004 7.68C8.27069 7.72224 8.1055 7.83716 8.00004 8C5.61612 11.1719 4.22433 14.9785 4.00004 18.94C3.97996 19.2158 4.08239 19.4865 4.28004 19.68C4.4632 19.8848 4.72531 20.0013 5.00004 20H7.00004C7.53302 19.9905 7.96877 19.5721 8.00004 19.04C8.2082 15.9205 9.31239 12.9273 11.18 10.42ZM39.46 7.68C39.6777 7.70388 39.8746 7.82051 40 8C42.3755 11.1765 43.7664 14.9804 44 18.94C43.9963 19.2155 43.8892 19.4796 43.7 19.68C43.5139 19.8807 43.2537 19.9964 42.98 20H40.98C40.4508 19.9898 40.0211 19.5689 40 19.04C39.7627 15.9101 38.6235 12.916 36.72 10.42C36.4815 10.1095 36.5348 9.66524 36.84 9.42L38.84 7.86C39.0164 7.72362 39.238 7.65929 39.46 7.68Z" />
      </g>
    </symbol>
    <symbol id="notifications_outlined" viewBox="0 0 48 48" xmlns="http://www.w3.org/2000/svg">
      <g id="Icon=notifications_outlined">
        <path id="Icon color" fill-rule="evenodd" clip-rule="evenodd" d="M39.42 31.42L37.76 29.76C36.6345 28.6359 36.0014 27.1108 36 25.52V20C36 17.4036 35.1579 14.8772 33.6 12.8L31.8 10.4C30.6669 8.88916 28.8885 8 27 8H26V5C26 4.44772 25.5523 4 25 4H23C22.4477 4 22 4.44772 22 5V8H21C19.1115 8 17.3331 8.88916 16.2 10.4L14.4 12.8C12.8421 14.8772 12 17.4036 12 20V25.52C11.9986 27.1108 11.3655 28.6359 10.24 29.76L8.58 31.42C8.21051 31.7925 8.00221 32.2953 8 32.82V34C8 35.1046 8.89543 36 10 36H38C39.1046 36 40 35.1046 40 34V32.82C39.9978 32.2953 39.7895 31.7925 39.42 31.42ZM32 32H16V20C16 18.269 16.5614 16.5848 17.6 15.2L19.4 12.8C19.7777 12.2964 20.3705 12 21 12H27C27.6295 12 28.2223 12.2964 28.6 12.8L30.4 15.2C31.4386 16.5848 32 18.269 32 20V32ZM24 44C26.2091 44 28 42.2091 28 40H20C20 42.2091 21.7909 44 24 44Z" />
      </g>
    </symbol>     
    <symbol id="message_failed" viewBox="0 0 48 48" xmlns="http://www.w3.org/2000/svg">
      <g id="Icon=message_failed">
        <path id="Icon color" fill-rule="evenodd" clip-rule="evenodd" d="M36 4H12C7.58172 4 4 7.58172 4 12V43C4 43.5523 4.44772 44 5 44C5.26424 43.9985 5.51665 43.8903 5.7 43.7L11.7 37.7C12.8487 36.5816 14.3971 35.9694 16 36H36C40.4183 36 44 32.4183 44 28V12C44 7.58172 40.4183 4 36 4ZM26 27C26 27.5523 25.5523 28 25 28H23C22.4477 28 22 27.5523 22 27V25C22 24.4477 22.4477 24 23 24H25C25.5523 24 26 24.4477 26 25V27ZM25.06 20C25.3143 20.0018 25.5295 19.8125 25.56 19.56L26.36 13.12C26.3945 12.8347 26.3046 12.5483 26.1132 12.334C25.9218 12.1196 25.6474 11.9979 25.36 12H22.64C22.3526 11.9979 22.0782 12.1196 21.8868 12.334C21.6954 12.5483 21.6055 12.8347 21.64 13.12L22.44 19.56C22.4705 19.8125 22.6857 20.0018 22.94 20H25.06Z" />
      </g>
    </symbol>
    <symbol id="message_failed_outlined" viewBox="0 0 48 48" xmlns="http://www.w3.org/2000/svg">
      <g id="Icon=message_failed_outlined">
        <path id="Icon color" fill-rule="evenodd" clip-rule="evenodd" d="M12 4H36C40.4183 4 44 7.58172 44 12V28C44 32.4183 40.4183 36 36 36H16C14.3971 35.9694 12.8487 36.5816 11.7 37.7L5.7 43.7C5.51665 43.8903 5.26424 43.9985 5 44C4.44772 44 4 43.5523 4 43V12C4 7.58172 7.58172 4 12 4ZM36 32C38.2091 32 40 30.2091 40 28V12C40 9.79086 38.2091 8 36 8H12C9.79086 8 8 9.79086 8 12V35.76L8.92 34.92C10.799 33.0457 13.346 31.9953 16 32H36ZM25 24H23C22.4477 24 22 24.4477 22 25V27C22 27.5523 22.4477 28 23 28H25C25.5523 28 26 27.5523 26 27V25C26 24.4477 25.5523 24 25 24ZM25.12 20H23H22.94C22.6857 20.0018 22.4705 19.8125 22.44 19.56L21.64 13.12C21.6055 12.8347 21.6954 12.5483 21.8868 12.334C22.0782 12.1196 22.3526 11.9979 22.64 12H25.42C25.7074 11.9979 25.9818 12.1196 26.1732 12.334C26.3646 12.5483 26.4545 12.8347 26.42 13.12L25.62 19.56C25.5895 19.8125 25.3743 20.0018 25.12 20Z" />
      </g>
    </symbol>
    <symbol id="warning" viewBox="0 0 48 48" xmlns="http://www.w3.org/2000/svg">
      <g id="Icon=warning">
        <path id="Icon color" fill-rule="evenodd" clip-rule="evenodd" d="M45.8103 39.26L25.6255 4.74C25.3519 4.28242 24.8584 4.00162 24.3252 4H23.7251C23.1918 4.00162 22.6984 4.28242 22.4248 4.74L2.19997 39.26C1.94018 39.7334 1.94018 40.3066 2.19997 40.78L2.48003 41.24C2.73928 41.7145 3.23958 42.0069 3.78034 42H44.2299C44.7707 42.0069 45.271 41.7145 45.5302 41.24L45.8103 40.78C46.0701 40.3066 46.0701 39.7334 45.8103 39.26ZM26.0056 33C26.0056 33.5523 25.5578 34 25.0054 34H23.0049C22.4525 34 22.0047 33.5523 22.0047 33V31C22.0047 30.4477 22.4525 30 23.0049 30H25.0054C25.5578 30 26.0056 30.4477 26.0056 31V33ZM25.0654 26C25.3197 26.0018 25.535 25.8125 25.5655 25.56L26.3657 19.12C26.4002 18.8347 26.3102 18.5483 26.1188 18.334C25.9273 18.1196 25.6529 17.9979 25.3654 18H22.6448C22.3574 17.9979 22.0829 18.1196 21.8915 18.334C21.7 18.5483 21.6101 18.8347 21.6446 19.12L22.4448 25.56C22.4753 25.8125 22.6905 26.0018 22.9449 26H25.0654Z" />
      </g>
    </symbol>
    <symbol id="warning_outlined" viewBox="0 0 48 48" xmlns="http://www.w3.org/2000/svg">
      <g id="Icon=warning_outlined">
        <path id="Icon color" fill-rule="evenodd" clip-rule="evenodd" d="M25.6255 4.74L45.8103 39.26C46.0701 39.7334 46.0701 40.3066 45.8103 40.78L45.5302 41.24C45.271 41.7145 44.7707 42.0069 44.2299 42H3.78034C3.23958 42.0069 2.73928 41.7145 2.48003 41.24L2.19997 40.78C1.94018 40.3066 1.94018 39.7334 2.19997 39.26L22.4248 4.74C22.6984 4.28242 23.1918 4.00162 23.7251 4H24.3252C24.8584 4.00162 25.3519 4.28242 25.6255 4.74ZM24.0051 10L7.58124 38H40.409L24.0051 10ZM23.0049 30C22.4525 30 22.0047 30.4477 22.0047 31V33C22.0047 33.5523 22.4525 34 23.0049 34H25.0054C25.5578 34 26.0056 33.5523 26.0056 33V31C26.0056 30.4477 25.5578 30 25.0054 30H23.0049ZM22.4448 25.56L21.6446 19.12C21.6101 18.8347 21.7 18.5483 21.8915 18.334C22.0829 18.1196 22.3574 17.9979 22.6448 18H25.3654C25.6529 17.9979 25.9273 18.1196 26.1188 18.334C26.3102 18.5483 26.4002 18.8347 26.3657 19.12L25.5655 25.56C25.535 25.8125 25.3197 26.0018 25.0654 26H22.9449C22.6905 26.0018 22.4753 25.8125 22.4448 25.56Z" />
      </g>
    </symbol>
    <symbol id="drag" viewBox="0 0 48 48" xmlns="http://www.w3.org/2000/svg">
      <g id="Icon=drag">
        <path id="Icon color" fill-rule="evenodd" clip-rule="evenodd" d="M18 16C20.2091 16 22 14.2091 22 12C22 9.79086 20.2091 8 18 8C15.7909 8 14 9.79086 14 12C14 14.2091 15.7909 16 18 16ZM14 24C14 21.7909 15.7909 20 18 20C20.2091 20 22 21.7909 22 24C22 26.2091 20.2091 28 18 28C15.7909 28 14 26.2091 14 24ZM18 32C15.7909 32 14 33.7909 14 36C14 38.2091 15.7909 40 18 40C20.2091 40 22 38.2091 22 36C22 33.7909 20.2091 32 18 32ZM34 12C34 14.2091 32.2091 16 30 16C27.7909 16 26 14.2091 26 12C26 9.79086 27.7909 8 30 8C32.2091 8 34 9.79086 34 12ZM30 20C27.7909 20 26 21.7909 26 24C26 26.2091 27.7909 28 30 28C32.2091 28 34 26.2091 34 24C34 21.7909 32.2091 20 30 20ZM26 36C26 33.7909 27.7909 32 30 32C32.2091 32 34 33.7909 34 36C34 38.2091 32.2091 40 30 40C27.7909 40 26 38.2091 26 36Z" />
      </g>
    </symbol>
    <symbol id="delete" viewBox="0 0 48 48" xmlns="http://www.w3.org/2000/svg">
      <g id="Icon=delete">
        <path id="Icon color" fill-rule="evenodd" clip-rule="evenodd" d="M40 11V9C40 8.44772 39.5523 8 39 8H30V6C30 4.89543 29.1046 4 28 4H20C18.8954 4 18 4.89543 18 6V8H9C8.44772 8 8 8.44772 8 9V11C8 11.5523 8.44772 12 9 12H39C39.5523 12 40 11.5523 40 11ZM15.74 44C13.6357 44.0052 11.8873 42.3791 11.74 40.28L10 16H38L36.3 40.28C36.1527 42.3791 34.4043 44.0052 32.3 44H15.74Z" />
      </g>
    </symbol>
    <symbol id="done" viewBox="0 0 48 48" xmlns="http://www.w3.org/2000/svg">
      <g id="Icon=done">
        <path id="Icon color" d="M39.6999 14.5L18.4999 35.7C18.3122 35.8893 18.0566 35.9958 17.7899 35.9958C17.5233 35.9958 17.2677 35.8893 17.0799 35.7L6.29995 24.92C6.11064 24.7322 6.00415 24.4766 6.00415 24.21C6.00415 23.9434 6.11064 23.6878 6.29995 23.5L7.69995 22.1C7.88772 21.9107 8.14331 21.8042 8.40995 21.8042C8.67659 21.8042 8.93218 21.9107 9.11995 22.1L17.7799 30.76L36.8799 11.66C37.2756 11.2764 37.9043 11.2764 38.2999 11.66L39.6999 13.08C39.8893 13.2678 39.9957 13.5234 39.9957 13.79C39.9957 14.0566 39.8893 14.3122 39.6999 14.5Z" />
      </g>
    </symbol>
    <symbol id="clear" viewBox="0 0 48 48" xmlns="http://www.w3.org/2000/svg">
      <g id="Icon=clear">
        <path id="Icon color" d="M35.6999 32.8799C35.8893 33.0677 35.9957 33.3233 35.9957 33.5899C35.9957 33.8566 35.8893 34.1122 35.6999 34.2999L34.2999 35.6999C34.1122 35.8893 33.8566 35.9957 33.5899 35.9957C33.3233 35.9957 33.0677 35.8893 32.8799 35.6999L23.9999 26.8199L15.1199 35.6999C14.9322 35.8893 14.6766 35.9957 14.4099 35.9957C14.1433 35.9957 13.8877 35.8893 13.6999 35.6999L12.2999 34.2999C12.1106 34.1122 12.0042 33.8566 12.0042 33.5899C12.0042 33.3233 12.1106 33.0677 12.2999 32.8799L21.1799 23.9999L12.2999 15.1199C12.1106 14.9322 12.0042 14.6766 12.0042 14.4099C12.0042 14.1433 12.1106 13.8877 12.2999 13.6999L13.6999 12.2999C13.8877 12.1106 14.1433 12.0042 14.4099 12.0042C14.6766 12.0042 14.9322 12.1106 15.1199 12.2999L23.9999 21.1799L32.8799 12.2999C33.0677 12.1106 33.3233 12.0042 33.5899 12.0042C33.8566 12.0042 34.1122 12.1106 34.2999 12.2999L35.6999 13.6999C35.8893 13.8877 35.9957 14.1433 35.9957 14.4099C35.9957 14.6766 35.8893 14.9322 35.6999 15.1199L26.8199 23.9999L35.6999 32.8799Z" />
      </g>
    </symbol>
    <symbol id="plus" viewBox="0 0 48 48" xmlns="http://www.w3.org/2000/svg">
      <g id="Icon=plus">
        <path id="Icon color" d="M38 23V25C38 25.5523 37.5523 26 37 26H26V37C26 37.5523 25.5523 38 25 38H23C22.4477 38 22 37.5523 22 37V26H11C10.4477 26 10 25.5523 10 25V23C10 22.4477 10.4477 22 11 22H22V11C22 10.4477 22.4477 10 23 10H25C25.5523 10 26 10.4477 26 11V22H37C37.5523 22 38 22.4477 38 23Z" fill="black"/>
      </g>
    </symbol>
    <symbol id="more_vertical" viewBox="0 0 48 48" xmlns="http://www.w3.org/2000/svg">
      <g id="Icon=more_vertical">
        <path id="Icon color" fill-rule="evenodd" clip-rule="evenodd" d="M20 12C20 9.79086 21.7909 8 24 8C26.2091 8 28 9.79086 28 12C28 14.2091 26.2091 16 24 16C21.7909 16 20 14.2091 20 12ZM24 20C21.7909 20 20 21.7909 20 24C20 26.2091 21.7909 28 24 28C26.2091 28 28 26.2091 28 24C28 21.7909 26.2091 20 24 20ZM20 36C20 33.7909 21.7909 32 24 32C26.2091 32 28 33.7909 28 36C28 38.2091 26.2091 40 24 40C21.7909 40 20 38.2091 20 36Z" />
      </g>
    </symbol>
    <symbol id="info" viewBox="0 0 48 48" xmlns="http://www.w3.org/2000/svg">
      <g id="Icon=info">
        <path id="Icon color" fill-rule="evenodd" clip-rule="evenodd" d="M4 24C4 12.9543 12.9543 4 24 4C29.3043 4 34.3914 6.10714 38.1421 9.85786C41.8929 13.6086 44 18.6957 44 24C44 35.0457 35.0457 44 24 44C12.9543 44 4 35.0457 4 24ZM8 24C8 32.8366 15.1634 40 24 40C28.2435 40 32.3131 38.3143 35.3137 35.3137C38.3143 32.3131 40 28.2435 40 24C40 15.1634 32.8366 8 24 8C15.1634 8 8 15.1634 8 24ZM26 25C26 24.4477 25.5523 24 25 24H23C22.4477 24 22 24.4477 22 25V31C22 31.5523 22.4477 32 23 32H25C25.5523 32 26 31.5523 26 31V25ZM25 16C25.5523 16 26 16.4477 26 17V19C26 19.5523 25.5523 20 25 20H23C22.4477 20 22 19.5523 22 19V17C22 16.4477 22.4477 16 23 16H25Z" />
      </g>
    </symbol>
    <symbol id="checkmark_circle_filled" viewBox="0 0 48 48" xmlns="http://www.w3.org/2000/svg">
      <g id="Icon=checkmark_circle_filled">
        <path id="Icon color" fill-rule="evenodd" clip-rule="evenodd" d="M4 24C4 12.9543 12.9543 4 24 4C29.3043 4 34.3914 6.10714 38.1421 9.85786C41.8929 13.6086 44 18.6957 44 24C44 35.0457 35.0457 44 24 44C12.9543 44 4 35.0457 4 24ZM21.46 30.7L32.7 19.46C33.0683 19.0737 33.0683 18.4663 32.7 18.08L31.64 17.02C31.2512 16.6389 30.6288 16.6389 30.24 17.02L20.76 26.5L17.76 23.52C17.5785 23.3266 17.3252 23.217 17.06 23.217C16.7948 23.217 16.5415 23.3266 16.36 23.52L15.3 24.58C15.1107 24.7678 15.0042 25.0234 15.0042 25.29C15.0042 25.5566 15.1107 25.8122 15.3 26L20.06 30.7C20.2415 30.8934 20.4948 31.003 20.76 31.003C21.0252 31.003 21.2785 30.8934 21.46 30.7Z" />
      </g>
    </symbol>
    <symbol id="checkmark_circle_outlined" viewBox="0 0 48 48" xmlns="http://www.w3.org/2000/svg">
      <g id="Icon=checkmark_circle_outlined">
        <path id="Icon color" fill-rule="evenodd" clip-rule="evenodd" d="M24 4C12.9543 4 4 12.9543 4 24C4 35.0457 12.9543 44 24 44C35.0457 44 44 35.0457 44 24C44 18.6957 41.8929 13.6086 38.1421 9.85786C34.3914 6.10714 29.3043 4 24 4ZM24 40C15.1634 40 8 32.8366 8 24C8 15.1634 15.1634 8 24 8C32.8366 8 40 15.1634 40 24C40 28.2435 38.3143 32.3131 35.3137 35.3137C32.3131 38.3143 28.2435 40 24 40ZM30.24 16.98C30.6288 16.5989 31.2512 16.5989 31.64 16.98L32.64 18.04C32.8293 18.2278 32.9358 18.4834 32.9358 18.75C32.9358 19.0166 32.8293 19.2722 32.64 19.46L21.4 30.7C21.2185 30.8934 20.9652 31.003 20.7 31.003C20.4348 31.003 20.1815 30.8934 20 30.7L15.3 25.96C15.1107 25.7722 15.0042 25.5166 15.0042 25.25C15.0042 24.9834 15.1107 24.7278 15.3 24.54L16.36 23.48C16.5415 23.2866 16.7948 23.177 17.06 23.177C17.3252 23.177 17.5785 23.2866 17.76 23.48L20.76 26.46L30.24 16.98Z" />
      </g>
    </symbol>                
  </defs>
</svg>